%TF.GenerationSoftware,KiCad,Pcbnew,7.0.10-7.0.10~ubuntu22.04.1*%
%TF.CreationDate,2024-02-27T10:58:37+01:00*%
%TF.ProjectId,KiCAD,4b694341-442e-46b6-9963-61645f706362,rev?*%
%TF.SameCoordinates,Original*%
%TF.FileFunction,Copper,L2,Bot*%
%TF.FilePolarity,Positive*%
%FSLAX46Y46*%
G04 Gerber Fmt 4.6, Leading zero omitted, Abs format (unit mm)*
G04 Created by KiCad (PCBNEW 7.0.10-7.0.10~ubuntu22.04.1) date 2024-02-27 10:58:37*
%MOMM*%
%LPD*%
G01*
G04 APERTURE LIST*
G04 Aperture macros list*
%AMRoundRect*
0 Rectangle with rounded corners*
0 $1 Rounding radius*
0 $2 $3 $4 $5 $6 $7 $8 $9 X,Y pos of 4 corners*
0 Add a 4 corners polygon primitive as box body*
4,1,4,$2,$3,$4,$5,$6,$7,$8,$9,$2,$3,0*
0 Add four circle primitives for the rounded corners*
1,1,$1+$1,$2,$3*
1,1,$1+$1,$4,$5*
1,1,$1+$1,$6,$7*
1,1,$1+$1,$8,$9*
0 Add four rect primitives between the rounded corners*
20,1,$1+$1,$2,$3,$4,$5,0*
20,1,$1+$1,$4,$5,$6,$7,0*
20,1,$1+$1,$6,$7,$8,$9,0*
20,1,$1+$1,$8,$9,$2,$3,0*%
G04 Aperture macros list end*
%TA.AperFunction,ComponentPad*%
%ADD10C,6.400000*%
%TD*%
%TA.AperFunction,ComponentPad*%
%ADD11RoundRect,0.250000X-0.750000X0.600000X-0.750000X-0.600000X0.750000X-0.600000X0.750000X0.600000X0*%
%TD*%
%TA.AperFunction,ComponentPad*%
%ADD12O,2.000000X1.700000*%
%TD*%
%TA.AperFunction,ComponentPad*%
%ADD13RoundRect,0.250000X0.750000X-0.600000X0.750000X0.600000X-0.750000X0.600000X-0.750000X-0.600000X0*%
%TD*%
%TA.AperFunction,ComponentPad*%
%ADD14RoundRect,0.250000X0.600000X0.750000X-0.600000X0.750000X-0.600000X-0.750000X0.600000X-0.750000X0*%
%TD*%
%TA.AperFunction,ComponentPad*%
%ADD15O,1.700000X2.000000*%
%TD*%
%TA.AperFunction,ViaPad*%
%ADD16C,0.800000*%
%TD*%
%TA.AperFunction,Conductor*%
%ADD17C,0.300000*%
%TD*%
%TA.AperFunction,Conductor*%
%ADD18C,0.500000*%
%TD*%
G04 APERTURE END LIST*
D10*
%TO.P,H1,1,1*%
%TO.N,GND*%
X80000000Y-40000000D03*
%TD*%
%TO.P,H4,1,1*%
%TO.N,GND*%
X130000000Y-80000000D03*
%TD*%
D11*
%TO.P,J3,1,Pin_1*%
%TO.N,ADC_IN1*%
X80000000Y-58000000D03*
D12*
%TO.P,J3,2,Pin_2*%
%TO.N,GND*%
X80000000Y-60500000D03*
%TD*%
D13*
%TO.P,J4,1,Pin_1*%
%TO.N,DAC_OUT*%
X130000000Y-61500000D03*
D12*
%TO.P,J4,2,Pin_2*%
%TO.N,GND*%
X130000000Y-59000000D03*
%TD*%
D14*
%TO.P,J2,1,Pin_1*%
%TO.N,+5V*%
X107000000Y-40000000D03*
D15*
%TO.P,J2,2,Pin_2*%
%TO.N,GND*%
X104500000Y-40000000D03*
%TD*%
D10*
%TO.P,H2,1,1*%
%TO.N,GND*%
X80000000Y-80000000D03*
%TD*%
%TO.P,H3,1,1*%
%TO.N,GND*%
X130000000Y-40000000D03*
%TD*%
D16*
%TO.N,GND*%
X99100000Y-58600000D03*
%TO.N,+3.3V*%
X93700000Y-60300000D03*
X85200000Y-68100000D03*
%TO.N,NRST*%
X96300000Y-61900000D03*
X87498959Y-66701041D03*
%TO.N,SWCLK*%
X110900000Y-56900000D03*
%TO.N,SWDIO*%
X111000000Y-58200000D03*
X88512155Y-68436912D03*
%TO.N,SWCLK*%
X89600000Y-68600000D03*
%TO.N,USART2_RX*%
X94500000Y-76600000D03*
X95300000Y-66650000D03*
%TO.N,+3.3VA*%
X101100000Y-71300000D03*
X96400000Y-65300000D03*
%TD*%
D17*
%TO.N,SWDIO*%
X111000000Y-58200000D02*
X111750000Y-57450000D01*
X94902082Y-64500000D02*
X91951472Y-64500000D01*
X91951472Y-64500000D02*
X88512155Y-67939317D01*
X111750000Y-57450000D02*
X111750000Y-55650000D01*
X104502082Y-54900000D02*
X94902082Y-64500000D01*
X88512155Y-67939317D02*
X88512155Y-68436912D01*
X111750000Y-55650000D02*
X111000000Y-54900000D01*
X111000000Y-54900000D02*
X104502082Y-54900000D01*
D18*
%TO.N,+3.3V*%
X92200000Y-60300000D02*
X93700000Y-60300000D01*
X85200000Y-68100000D02*
X85200000Y-67300000D01*
X85200000Y-67300000D02*
X92200000Y-60300000D01*
D17*
%TO.N,SWCLK*%
X110900000Y-56900000D02*
X103600000Y-56900000D01*
X103600000Y-56900000D02*
X96050000Y-64450000D01*
X96050000Y-64450000D02*
X96047918Y-64450000D01*
X96047918Y-64450000D02*
X95550000Y-64947918D01*
X94800000Y-65700000D02*
X91600000Y-65700000D01*
X95550000Y-64947918D02*
X95550000Y-64950000D01*
X95550000Y-64950000D02*
X94800000Y-65700000D01*
X91600000Y-65700000D02*
X89600000Y-67700000D01*
X89600000Y-67700000D02*
X89600000Y-68600000D01*
%TO.N,NRST*%
X92300000Y-61900000D02*
X96300000Y-61900000D01*
X87498959Y-66701041D02*
X92300000Y-61900000D01*
%TO.N,USART2_RX*%
X95300000Y-75800000D02*
X94500000Y-76600000D01*
X95300000Y-66650000D02*
X95300000Y-75800000D01*
D18*
%TO.N,+3.3VA*%
X96400000Y-66600000D02*
X101100000Y-71300000D01*
X96400000Y-65300000D02*
X96400000Y-66600000D01*
%TD*%
%TA.AperFunction,Conductor*%
%TO.N,GND*%
G36*
X128172074Y-36520462D02*
G01*
X128226612Y-36575000D01*
X128246574Y-36649500D01*
X128226612Y-36724000D01*
X128172074Y-36778538D01*
X128165217Y-36782261D01*
X128147466Y-36791304D01*
X128147454Y-36791311D01*
X127822210Y-37002528D01*
X127564649Y-37211095D01*
X127564648Y-37211095D01*
X129055819Y-38702266D01*
X128865130Y-38865130D01*
X128702266Y-39055819D01*
X127211095Y-37564648D01*
X127211095Y-37564649D01*
X127002528Y-37822210D01*
X126791311Y-38147454D01*
X126791300Y-38147474D01*
X126615248Y-38492998D01*
X126615237Y-38493022D01*
X126476266Y-38855052D01*
X126476259Y-38855072D01*
X126375889Y-39229661D01*
X126375888Y-39229664D01*
X126315218Y-39612719D01*
X126294922Y-40000000D01*
X126315218Y-40387280D01*
X126375888Y-40770335D01*
X126375889Y-40770338D01*
X126476259Y-41144927D01*
X126476266Y-41144947D01*
X126615237Y-41506977D01*
X126615248Y-41507001D01*
X126791300Y-41852525D01*
X126791311Y-41852545D01*
X127002528Y-42177789D01*
X127211096Y-42435350D01*
X128702265Y-40944179D01*
X128865130Y-41134870D01*
X129055819Y-41297733D01*
X127564649Y-42788903D01*
X127822213Y-42997473D01*
X127822215Y-42997475D01*
X128147454Y-43208688D01*
X128147474Y-43208699D01*
X128492998Y-43384751D01*
X128493022Y-43384762D01*
X128855052Y-43523733D01*
X128855072Y-43523740D01*
X129229661Y-43624110D01*
X129229664Y-43624111D01*
X129612719Y-43684781D01*
X130000000Y-43705077D01*
X130387280Y-43684781D01*
X130770335Y-43624111D01*
X130770338Y-43624110D01*
X131144927Y-43523740D01*
X131144947Y-43523733D01*
X131506977Y-43384762D01*
X131507001Y-43384751D01*
X131852525Y-43208699D01*
X131852545Y-43208688D01*
X132177785Y-42997474D01*
X132435349Y-42788902D01*
X130944180Y-41297733D01*
X131134870Y-41134870D01*
X131297733Y-40944180D01*
X132788902Y-42435349D01*
X132997474Y-42177785D01*
X133208688Y-41852545D01*
X133208695Y-41852533D01*
X133217739Y-41834783D01*
X133269348Y-41777465D01*
X133342700Y-41753630D01*
X133418143Y-41769665D01*
X133475461Y-41821274D01*
X133499296Y-41894626D01*
X133499500Y-41902426D01*
X133499500Y-78097573D01*
X133479538Y-78172073D01*
X133425000Y-78226611D01*
X133350500Y-78246573D01*
X133276000Y-78226611D01*
X133221462Y-78172073D01*
X133217741Y-78165219D01*
X133208699Y-78147475D01*
X133208688Y-78147454D01*
X132997475Y-77822215D01*
X132997473Y-77822213D01*
X132788903Y-77564649D01*
X131297733Y-79055819D01*
X131134870Y-78865130D01*
X130944179Y-78702265D01*
X132435350Y-77211096D01*
X132177789Y-77002528D01*
X131852545Y-76791311D01*
X131852525Y-76791300D01*
X131507001Y-76615248D01*
X131506977Y-76615237D01*
X131144947Y-76476266D01*
X131144927Y-76476259D01*
X130770338Y-76375889D01*
X130770335Y-76375888D01*
X130387280Y-76315218D01*
X130000000Y-76294922D01*
X129612719Y-76315218D01*
X129229664Y-76375888D01*
X129229661Y-76375889D01*
X128855072Y-76476259D01*
X128855052Y-76476266D01*
X128493022Y-76615237D01*
X128492998Y-76615248D01*
X128147474Y-76791300D01*
X128147454Y-76791311D01*
X127822210Y-77002528D01*
X127564649Y-77211095D01*
X127564648Y-77211095D01*
X129055819Y-78702266D01*
X128865130Y-78865130D01*
X128702266Y-79055819D01*
X127211095Y-77564648D01*
X127211095Y-77564649D01*
X127002528Y-77822210D01*
X126791311Y-78147454D01*
X126791300Y-78147474D01*
X126615248Y-78492998D01*
X126615237Y-78493022D01*
X126476266Y-78855052D01*
X126476259Y-78855072D01*
X126375889Y-79229661D01*
X126375888Y-79229664D01*
X126315218Y-79612719D01*
X126294922Y-80000000D01*
X126315218Y-80387280D01*
X126375888Y-80770335D01*
X126375889Y-80770338D01*
X126476259Y-81144927D01*
X126476266Y-81144947D01*
X126615237Y-81506977D01*
X126615248Y-81507001D01*
X126791300Y-81852525D01*
X126791311Y-81852545D01*
X127002528Y-82177789D01*
X127211096Y-82435350D01*
X128702265Y-80944179D01*
X128865130Y-81134870D01*
X129055819Y-81297733D01*
X127564649Y-82788903D01*
X127822213Y-82997473D01*
X127822215Y-82997475D01*
X128147454Y-83208688D01*
X128147466Y-83208695D01*
X128165217Y-83217739D01*
X128222535Y-83269348D01*
X128246370Y-83342700D01*
X128230335Y-83418143D01*
X128178726Y-83475461D01*
X128105374Y-83499296D01*
X128097574Y-83499500D01*
X81902426Y-83499500D01*
X81827926Y-83479538D01*
X81773388Y-83425000D01*
X81753426Y-83350500D01*
X81773388Y-83276000D01*
X81827926Y-83221462D01*
X81834783Y-83217739D01*
X81852533Y-83208695D01*
X81852545Y-83208688D01*
X82177785Y-82997474D01*
X82435349Y-82788902D01*
X80944180Y-81297733D01*
X81134870Y-81134870D01*
X81297733Y-80944180D01*
X82788902Y-82435349D01*
X82997474Y-82177785D01*
X83208688Y-81852545D01*
X83208699Y-81852525D01*
X83384751Y-81507001D01*
X83384762Y-81506977D01*
X83523733Y-81144947D01*
X83523740Y-81144927D01*
X83624110Y-80770338D01*
X83624111Y-80770335D01*
X83684781Y-80387280D01*
X83705077Y-80000000D01*
X83684781Y-79612719D01*
X83624111Y-79229664D01*
X83624110Y-79229661D01*
X83523740Y-78855072D01*
X83523733Y-78855052D01*
X83384762Y-78493022D01*
X83384751Y-78492998D01*
X83208699Y-78147474D01*
X83208688Y-78147454D01*
X82997475Y-77822215D01*
X82997473Y-77822213D01*
X82788903Y-77564649D01*
X81297733Y-79055818D01*
X81134870Y-78865130D01*
X80944179Y-78702265D01*
X82435350Y-77211096D01*
X82177789Y-77002528D01*
X81852545Y-76791311D01*
X81852525Y-76791300D01*
X81507001Y-76615248D01*
X81506977Y-76615237D01*
X81144947Y-76476266D01*
X81144927Y-76476259D01*
X80770338Y-76375889D01*
X80770335Y-76375888D01*
X80387280Y-76315218D01*
X80000000Y-76294922D01*
X79612719Y-76315218D01*
X79229664Y-76375888D01*
X79229661Y-76375889D01*
X78855072Y-76476259D01*
X78855052Y-76476266D01*
X78493022Y-76615237D01*
X78492998Y-76615248D01*
X78147474Y-76791300D01*
X78147454Y-76791311D01*
X77822210Y-77002528D01*
X77564649Y-77211095D01*
X77564648Y-77211095D01*
X79055819Y-78702266D01*
X78865130Y-78865130D01*
X78702266Y-79055819D01*
X77211095Y-77564648D01*
X77211095Y-77564649D01*
X77002528Y-77822210D01*
X76791311Y-78147454D01*
X76791300Y-78147475D01*
X76782259Y-78165219D01*
X76730650Y-78222536D01*
X76657297Y-78246369D01*
X76581854Y-78230332D01*
X76524537Y-78178723D01*
X76500704Y-78105370D01*
X76500500Y-78097573D01*
X76500500Y-68100000D01*
X84494355Y-68100000D01*
X84514860Y-68268874D01*
X84575181Y-68427929D01*
X84575182Y-68427930D01*
X84671817Y-68567929D01*
X84671819Y-68567930D01*
X84671820Y-68567932D01*
X84799146Y-68680732D01*
X84799148Y-68680734D01*
X84949775Y-68759790D01*
X85114944Y-68800500D01*
X85285056Y-68800500D01*
X85450225Y-68759790D01*
X85600852Y-68680734D01*
X85728183Y-68567929D01*
X85824818Y-68427930D01*
X85885140Y-68268872D01*
X85905645Y-68100000D01*
X85885140Y-67931128D01*
X85883097Y-67925742D01*
X85824817Y-67772068D01*
X85776875Y-67702611D01*
X85750983Y-67629959D01*
X85750500Y-67617970D01*
X85750500Y-67589742D01*
X85770462Y-67515242D01*
X85794137Y-67484387D01*
X86553561Y-66724963D01*
X86620353Y-66686401D01*
X86697481Y-66686401D01*
X86764276Y-66724965D01*
X86802840Y-66791760D01*
X86806830Y-66812362D01*
X86813818Y-66869912D01*
X86874140Y-67028970D01*
X86874141Y-67028971D01*
X86970776Y-67168970D01*
X86970778Y-67168971D01*
X86970779Y-67168973D01*
X87013279Y-67206624D01*
X87086820Y-67271776D01*
X87098105Y-67281773D01*
X87098107Y-67281775D01*
X87248734Y-67360831D01*
X87413903Y-67401541D01*
X87584015Y-67401541D01*
X87749184Y-67360831D01*
X87899811Y-67281775D01*
X88027142Y-67168970D01*
X88123777Y-67028971D01*
X88184099Y-66869913D01*
X88204604Y-66701041D01*
X88204604Y-66701037D01*
X88204604Y-66694217D01*
X88224566Y-66619717D01*
X88248245Y-66588858D01*
X92442962Y-62394141D01*
X92509757Y-62355577D01*
X92548321Y-62350500D01*
X95695636Y-62350500D01*
X95770136Y-62370462D01*
X95794440Y-62387971D01*
X95899148Y-62480734D01*
X95972393Y-62519176D01*
X96029083Y-62571473D01*
X96052029Y-62645109D01*
X96035083Y-62720352D01*
X96008509Y-62756468D01*
X94759120Y-64005859D01*
X94692325Y-64044423D01*
X94653761Y-64049500D01*
X91985139Y-64049500D01*
X91968457Y-64048563D01*
X91934440Y-64044730D01*
X91934432Y-64044730D01*
X91878727Y-64055269D01*
X91873242Y-64056201D01*
X91817185Y-64064651D01*
X91809006Y-64067173D01*
X91801000Y-64069975D01*
X91750848Y-64096481D01*
X91745878Y-64098990D01*
X91694829Y-64123574D01*
X91687797Y-64128368D01*
X91680933Y-64133435D01*
X91640856Y-64173511D01*
X91636848Y-64177372D01*
X91595278Y-64215944D01*
X91588315Y-64224676D01*
X91587379Y-64223929D01*
X91577113Y-64237254D01*
X88217408Y-67596959D01*
X88204952Y-67608090D01*
X88178185Y-67629436D01*
X88146243Y-67676286D01*
X88143021Y-67680826D01*
X88109361Y-67726434D01*
X88105376Y-67733974D01*
X88101682Y-67741645D01*
X88084968Y-67795831D01*
X88083227Y-67801122D01*
X88064508Y-67854618D01*
X88064199Y-67856253D01*
X88063239Y-67858246D01*
X88060822Y-67865154D01*
X88060043Y-67864881D01*
X88030732Y-67925742D01*
X88016603Y-67940074D01*
X87983975Y-67968979D01*
X87983972Y-67968983D01*
X87887336Y-68108982D01*
X87827015Y-68268037D01*
X87806510Y-68436912D01*
X87827015Y-68605786D01*
X87887336Y-68764841D01*
X87890120Y-68768874D01*
X87983972Y-68904841D01*
X87983974Y-68904842D01*
X87983975Y-68904844D01*
X88111301Y-69017644D01*
X88111303Y-69017646D01*
X88261930Y-69096702D01*
X88427099Y-69137412D01*
X88597211Y-69137412D01*
X88762380Y-69096702D01*
X88887639Y-69030959D01*
X88962883Y-69014013D01*
X89036518Y-69036958D01*
X89068407Y-69064081D01*
X89071815Y-69067928D01*
X89199146Y-69180732D01*
X89199148Y-69180734D01*
X89349775Y-69259790D01*
X89514944Y-69300500D01*
X89685056Y-69300500D01*
X89850225Y-69259790D01*
X90000852Y-69180734D01*
X90128183Y-69067929D01*
X90224818Y-68927930D01*
X90285140Y-68768872D01*
X90305645Y-68600000D01*
X90285140Y-68431128D01*
X90224818Y-68272070D01*
X90128183Y-68132071D01*
X90100693Y-68107717D01*
X90058168Y-68043373D01*
X90050500Y-67996190D01*
X90050500Y-67948321D01*
X90070462Y-67873821D01*
X90094141Y-67842962D01*
X91742962Y-66194141D01*
X91809757Y-66155577D01*
X91848321Y-66150500D01*
X94524386Y-66150500D01*
X94598886Y-66170462D01*
X94653424Y-66225000D01*
X94673386Y-66299500D01*
X94663704Y-66352336D01*
X94614860Y-66481125D01*
X94594355Y-66650000D01*
X94614860Y-66818874D01*
X94671912Y-66969308D01*
X94675182Y-66977930D01*
X94771817Y-67117929D01*
X94779011Y-67124302D01*
X94799304Y-67142280D01*
X94841831Y-67206624D01*
X94849500Y-67253809D01*
X94849500Y-75551678D01*
X94829538Y-75626178D01*
X94805859Y-75657037D01*
X94607038Y-75855859D01*
X94540243Y-75894423D01*
X94501679Y-75899500D01*
X94414944Y-75899500D01*
X94249775Y-75940209D01*
X94099145Y-76019267D01*
X93971820Y-76132067D01*
X93971817Y-76132071D01*
X93875181Y-76272070D01*
X93814860Y-76431125D01*
X93794355Y-76600000D01*
X93814860Y-76768874D01*
X93875181Y-76927929D01*
X93875182Y-76927930D01*
X93971817Y-77067929D01*
X93971819Y-77067930D01*
X93971820Y-77067932D01*
X94099146Y-77180732D01*
X94099148Y-77180734D01*
X94249775Y-77259790D01*
X94414944Y-77300500D01*
X94585056Y-77300500D01*
X94750225Y-77259790D01*
X94900852Y-77180734D01*
X95028183Y-77067929D01*
X95124818Y-76927930D01*
X95185140Y-76768872D01*
X95205645Y-76600000D01*
X95205645Y-76599996D01*
X95205645Y-76593175D01*
X95225607Y-76518675D01*
X95249286Y-76487816D01*
X95421884Y-76315218D01*
X95594754Y-76142347D01*
X95607193Y-76131232D01*
X95633970Y-76109879D01*
X95665939Y-76062988D01*
X95669108Y-76058521D01*
X95702793Y-76012882D01*
X95702794Y-76012880D01*
X95706774Y-76005350D01*
X95710467Y-75997680D01*
X95710472Y-75997673D01*
X95727185Y-75943488D01*
X95728928Y-75938189D01*
X95747646Y-75884699D01*
X95747646Y-75884696D01*
X95749227Y-75876341D01*
X95750500Y-75867900D01*
X95750500Y-75811234D01*
X95750604Y-75805663D01*
X95750658Y-75804212D01*
X95752725Y-75748990D01*
X95752724Y-75748985D01*
X95751475Y-75737892D01*
X95752693Y-75737754D01*
X95750500Y-75721070D01*
X95750500Y-67253809D01*
X95770462Y-67179309D01*
X95800696Y-67142280D01*
X95801452Y-67141609D01*
X95828183Y-67117929D01*
X95853716Y-67080938D01*
X95912464Y-67030968D01*
X95988329Y-67017065D01*
X96060981Y-67042957D01*
X96081698Y-67060223D01*
X100368070Y-71346595D01*
X100406634Y-71413390D01*
X100410624Y-71433992D01*
X100414859Y-71468867D01*
X100414859Y-71468870D01*
X100414860Y-71468872D01*
X100475182Y-71627930D01*
X100571817Y-71767929D01*
X100571819Y-71767930D01*
X100571820Y-71767932D01*
X100699146Y-71880732D01*
X100699148Y-71880734D01*
X100849775Y-71959790D01*
X101014944Y-72000500D01*
X101185056Y-72000500D01*
X101350225Y-71959790D01*
X101500852Y-71880734D01*
X101628183Y-71767929D01*
X101724818Y-71627930D01*
X101785140Y-71468872D01*
X101805645Y-71300000D01*
X101785140Y-71131128D01*
X101724818Y-70972070D01*
X101628183Y-70832071D01*
X101628180Y-70832068D01*
X101628179Y-70832067D01*
X101500853Y-70719267D01*
X101500854Y-70719267D01*
X101350224Y-70640209D01*
X101216055Y-70607140D01*
X101148497Y-70569929D01*
X101146354Y-70567829D01*
X96994141Y-66415616D01*
X96955577Y-66348821D01*
X96950500Y-66310257D01*
X96950500Y-65782027D01*
X96970462Y-65707527D01*
X96976866Y-65697398D01*
X97024818Y-65627930D01*
X97085140Y-65468872D01*
X97105645Y-65300000D01*
X97085140Y-65131128D01*
X97073524Y-65100500D01*
X97024818Y-64972070D01*
X97009929Y-64950500D01*
X96928183Y-64832071D01*
X96928180Y-64832068D01*
X96928179Y-64832067D01*
X96800853Y-64719267D01*
X96800851Y-64719265D01*
X96728969Y-64681538D01*
X96672280Y-64629241D01*
X96649335Y-64555605D01*
X96666282Y-64480361D01*
X96692852Y-64444250D01*
X101887103Y-59250000D01*
X128519364Y-59250000D01*
X128576568Y-59463487D01*
X128676402Y-59677580D01*
X128811891Y-59871079D01*
X128978920Y-60038108D01*
X129096332Y-60120321D01*
X129145909Y-60179405D01*
X129159302Y-60255361D01*
X129132923Y-60327838D01*
X129073839Y-60377415D01*
X129065531Y-60380986D01*
X128977658Y-60415638D01*
X128977658Y-60415639D01*
X128857079Y-60507076D01*
X128857076Y-60507079D01*
X128765639Y-60627658D01*
X128765638Y-60627658D01*
X128710122Y-60768436D01*
X128699500Y-60856894D01*
X128699500Y-62143105D01*
X128710122Y-62231563D01*
X128765638Y-62372341D01*
X128847835Y-62480734D01*
X128857078Y-62492922D01*
X128977658Y-62584361D01*
X129118436Y-62639877D01*
X129206898Y-62650500D01*
X129206899Y-62650500D01*
X130793101Y-62650500D01*
X130793102Y-62650500D01*
X130881564Y-62639877D01*
X131022342Y-62584361D01*
X131142922Y-62492922D01*
X131234361Y-62372342D01*
X131289877Y-62231564D01*
X131300500Y-62143102D01*
X131300500Y-60856898D01*
X131289877Y-60768436D01*
X131234361Y-60627658D01*
X131142922Y-60507078D01*
X131142920Y-60507076D01*
X131092540Y-60468872D01*
X131022342Y-60415639D01*
X131022339Y-60415638D01*
X131022338Y-60415637D01*
X130934469Y-60380986D01*
X130872486Y-60335085D01*
X130841758Y-60264342D01*
X130850519Y-60187714D01*
X130896420Y-60125731D01*
X130903667Y-60120321D01*
X131021080Y-60038107D01*
X131188111Y-59871076D01*
X131323593Y-59677588D01*
X131323599Y-59677579D01*
X131423430Y-59463491D01*
X131423431Y-59463489D01*
X131480636Y-59250000D01*
X130433686Y-59250000D01*
X130459493Y-59209844D01*
X130500000Y-59071889D01*
X130500000Y-58928111D01*
X130459493Y-58790156D01*
X130433686Y-58750000D01*
X131480636Y-58750000D01*
X131480635Y-58749999D01*
X131423431Y-58536512D01*
X131323597Y-58322419D01*
X131188108Y-58128920D01*
X131021079Y-57961891D01*
X130827580Y-57826402D01*
X130613487Y-57726568D01*
X130385324Y-57665431D01*
X130385318Y-57665430D01*
X130250000Y-57653591D01*
X130250000Y-58564498D01*
X130142315Y-58515320D01*
X130035763Y-58500000D01*
X129964237Y-58500000D01*
X129857685Y-58515320D01*
X129750000Y-58564498D01*
X129750000Y-57653591D01*
X129614681Y-57665430D01*
X129614675Y-57665431D01*
X129386512Y-57726568D01*
X129172419Y-57826402D01*
X128978920Y-57961891D01*
X128811888Y-58128923D01*
X128676406Y-58322411D01*
X128676400Y-58322420D01*
X128576569Y-58536508D01*
X128576568Y-58536510D01*
X128519364Y-58749999D01*
X128519364Y-58750000D01*
X129566314Y-58750000D01*
X129540507Y-58790156D01*
X129500000Y-58928111D01*
X129500000Y-59071889D01*
X129540507Y-59209844D01*
X129566314Y-59250000D01*
X128519364Y-59250000D01*
X101887103Y-59250000D01*
X103742963Y-57394141D01*
X103809758Y-57355577D01*
X103848322Y-57350500D01*
X110295636Y-57350500D01*
X110370136Y-57370462D01*
X110394436Y-57387967D01*
X110477118Y-57461217D01*
X110501444Y-57482768D01*
X110543970Y-57547113D01*
X110548627Y-57624100D01*
X110514166Y-57693102D01*
X110501444Y-57705824D01*
X110471817Y-57732071D01*
X110375181Y-57872070D01*
X110314860Y-58031125D01*
X110294355Y-58200000D01*
X110314860Y-58368874D01*
X110375181Y-58527929D01*
X110375182Y-58527930D01*
X110471817Y-58667929D01*
X110471819Y-58667930D01*
X110471820Y-58667932D01*
X110599146Y-58780732D01*
X110599148Y-58780734D01*
X110749775Y-58859790D01*
X110914944Y-58900500D01*
X111085056Y-58900500D01*
X111250225Y-58859790D01*
X111400852Y-58780734D01*
X111528183Y-58667929D01*
X111624818Y-58527930D01*
X111685140Y-58368872D01*
X111705645Y-58200000D01*
X111705645Y-58199996D01*
X111705645Y-58193175D01*
X111725607Y-58118675D01*
X111749286Y-58087816D01*
X111875211Y-57961891D01*
X112044754Y-57792347D01*
X112057193Y-57781232D01*
X112083970Y-57759879D01*
X112115939Y-57712988D01*
X112119108Y-57708521D01*
X112152793Y-57662882D01*
X112152794Y-57662880D01*
X112156774Y-57655350D01*
X112160467Y-57647680D01*
X112160472Y-57647673D01*
X112177185Y-57593488D01*
X112178928Y-57588189D01*
X112197646Y-57534699D01*
X112197646Y-57534696D01*
X112199227Y-57526339D01*
X112200500Y-57517899D01*
X112200500Y-57461217D01*
X112200604Y-57455647D01*
X112200631Y-57454904D01*
X112202724Y-57398990D01*
X112202722Y-57398985D01*
X112201474Y-57387897D01*
X112202682Y-57387760D01*
X112200500Y-57371076D01*
X112200500Y-55683666D01*
X112201437Y-55666984D01*
X112201503Y-55666397D01*
X112205270Y-55632965D01*
X112194726Y-55577243D01*
X112193796Y-55571766D01*
X112185349Y-55515716D01*
X112182830Y-55507552D01*
X112180023Y-55499532D01*
X112180023Y-55499528D01*
X112153522Y-55449388D01*
X112151021Y-55444434D01*
X112126425Y-55393358D01*
X112126424Y-55393357D01*
X112126424Y-55393356D01*
X112121622Y-55386314D01*
X112116567Y-55379464D01*
X112076478Y-55339375D01*
X112072639Y-55335390D01*
X112034055Y-55293806D01*
X112034052Y-55293804D01*
X112025327Y-55286846D01*
X112026086Y-55285894D01*
X112012742Y-55275639D01*
X111342358Y-54605255D01*
X111331224Y-54592796D01*
X111317417Y-54575483D01*
X111309879Y-54566030D01*
X111263026Y-54534086D01*
X111258489Y-54530866D01*
X111212883Y-54497207D01*
X111205324Y-54493212D01*
X111197671Y-54489527D01*
X111143501Y-54472818D01*
X111138208Y-54471077D01*
X111084700Y-54452354D01*
X111076330Y-54450770D01*
X111067902Y-54449500D01*
X111067901Y-54449500D01*
X111011217Y-54449500D01*
X111005647Y-54449396D01*
X111001632Y-54449245D01*
X110948990Y-54447276D01*
X110948989Y-54447276D01*
X110948985Y-54447276D01*
X110937891Y-54448526D01*
X110937753Y-54447302D01*
X110921073Y-54449500D01*
X104535749Y-54449500D01*
X104519067Y-54448563D01*
X104485050Y-54444730D01*
X104485043Y-54444730D01*
X104429333Y-54455270D01*
X104423845Y-54456202D01*
X104367800Y-54464650D01*
X104359643Y-54467165D01*
X104351609Y-54469977D01*
X104301469Y-54496477D01*
X104296497Y-54498987D01*
X104245441Y-54523574D01*
X104238400Y-54528374D01*
X104231545Y-54533434D01*
X104191466Y-54573511D01*
X104187459Y-54577371D01*
X104145888Y-54615944D01*
X104138925Y-54624676D01*
X104137989Y-54623929D01*
X104127723Y-54637254D01*
X97160279Y-61604698D01*
X97093484Y-61643262D01*
X97016356Y-61643262D01*
X96949561Y-61604698D01*
X96930650Y-61578996D01*
X96929938Y-61579488D01*
X96924818Y-61572070D01*
X96828183Y-61432071D01*
X96828180Y-61432068D01*
X96828179Y-61432067D01*
X96700853Y-61319267D01*
X96700854Y-61319267D01*
X96550224Y-61240209D01*
X96385056Y-61199500D01*
X96214944Y-61199500D01*
X96049775Y-61240209D01*
X95899145Y-61319267D01*
X95794441Y-61412028D01*
X95725440Y-61446489D01*
X95695636Y-61449500D01*
X92333667Y-61449500D01*
X92316985Y-61448563D01*
X92282968Y-61444730D01*
X92282961Y-61444730D01*
X92227251Y-61455270D01*
X92221762Y-61456203D01*
X92199179Y-61459607D01*
X92122536Y-61450972D01*
X92060479Y-61405172D01*
X92029635Y-61334479D01*
X92038270Y-61257836D01*
X92071610Y-61206914D01*
X92384384Y-60894141D01*
X92451179Y-60855577D01*
X92489743Y-60850500D01*
X93208917Y-60850500D01*
X93283417Y-60870462D01*
X93293563Y-60876878D01*
X93299146Y-60880732D01*
X93299148Y-60880734D01*
X93449775Y-60959790D01*
X93614944Y-61000500D01*
X93785056Y-61000500D01*
X93950225Y-60959790D01*
X94100852Y-60880734D01*
X94228183Y-60767929D01*
X94324818Y-60627930D01*
X94385140Y-60468872D01*
X94405645Y-60300000D01*
X94385140Y-60131128D01*
X94381041Y-60120321D01*
X94324818Y-59972070D01*
X94289375Y-59920723D01*
X94228183Y-59832071D01*
X94228180Y-59832068D01*
X94228179Y-59832067D01*
X94126318Y-59741827D01*
X94100853Y-59719267D01*
X94100854Y-59719267D01*
X93950224Y-59640209D01*
X93785056Y-59599500D01*
X93614944Y-59599500D01*
X93449775Y-59640209D01*
X93299150Y-59719264D01*
X93293563Y-59723122D01*
X93220911Y-59749016D01*
X93208917Y-59749500D01*
X92211936Y-59749500D01*
X92206850Y-59749413D01*
X92204680Y-59749338D01*
X92143172Y-59747237D01*
X92143171Y-59747237D01*
X92104500Y-59756661D01*
X92089517Y-59759509D01*
X92050079Y-59764930D01*
X92035575Y-59771230D01*
X92011503Y-59779324D01*
X91996148Y-59783067D01*
X91996146Y-59783067D01*
X91996146Y-59783068D01*
X91961445Y-59802578D01*
X91947789Y-59809361D01*
X91911278Y-59825221D01*
X91899017Y-59835196D01*
X91878018Y-59849487D01*
X91864243Y-59857232D01*
X91836096Y-59885378D01*
X91824776Y-59895594D01*
X91793892Y-59920721D01*
X91793890Y-59920723D01*
X91784774Y-59933637D01*
X91768410Y-59953063D01*
X84819175Y-66902298D01*
X84815519Y-66905831D01*
X84768957Y-66949318D01*
X84748277Y-66983324D01*
X84739697Y-66995930D01*
X84715639Y-67027656D01*
X84715638Y-67027657D01*
X84709837Y-67042368D01*
X84698543Y-67065108D01*
X84690326Y-67078621D01*
X84690325Y-67078623D01*
X84679586Y-67116949D01*
X84674726Y-67131401D01*
X84660125Y-67168428D01*
X84660123Y-67168437D01*
X84658506Y-67184163D01*
X84653766Y-67209105D01*
X84649500Y-67224334D01*
X84649500Y-67264135D01*
X84648719Y-67279372D01*
X84644648Y-67318972D01*
X84647333Y-67334544D01*
X84649500Y-67359862D01*
X84649500Y-67617970D01*
X84629538Y-67692470D01*
X84623125Y-67702611D01*
X84575182Y-67772068D01*
X84514860Y-67931125D01*
X84494355Y-68100000D01*
X76500500Y-68100000D01*
X76500500Y-60750000D01*
X78519364Y-60750000D01*
X78576568Y-60963487D01*
X78676402Y-61177580D01*
X78811891Y-61371079D01*
X78978920Y-61538108D01*
X79172419Y-61673597D01*
X79386512Y-61773431D01*
X79614678Y-61834568D01*
X79614677Y-61834568D01*
X79749999Y-61846407D01*
X79750000Y-61846407D01*
X79750000Y-60935501D01*
X79857685Y-60984680D01*
X79964237Y-61000000D01*
X80035763Y-61000000D01*
X80142315Y-60984680D01*
X80250000Y-60935501D01*
X80250000Y-61846407D01*
X80385322Y-61834568D01*
X80613487Y-61773431D01*
X80827580Y-61673597D01*
X81021079Y-61538108D01*
X81188111Y-61371076D01*
X81323593Y-61177588D01*
X81323599Y-61177579D01*
X81423430Y-60963491D01*
X81423431Y-60963489D01*
X81480636Y-60750000D01*
X80433686Y-60750000D01*
X80459493Y-60709844D01*
X80500000Y-60571889D01*
X80500000Y-60428111D01*
X80459493Y-60290156D01*
X80433686Y-60250000D01*
X81480636Y-60250000D01*
X81480635Y-60249999D01*
X81423431Y-60036512D01*
X81323597Y-59822419D01*
X81188108Y-59628920D01*
X81021076Y-59461888D01*
X80903667Y-59379677D01*
X80854090Y-59320594D01*
X80840697Y-59244637D01*
X80867077Y-59172161D01*
X80926160Y-59122584D01*
X80934429Y-59119029D01*
X81022342Y-59084361D01*
X81142922Y-58992922D01*
X81234361Y-58872342D01*
X81289877Y-58731564D01*
X81300500Y-58643102D01*
X81300500Y-57356898D01*
X81289877Y-57268436D01*
X81234361Y-57127658D01*
X81142922Y-57007078D01*
X81142920Y-57007076D01*
X81095982Y-56971482D01*
X81022342Y-56915639D01*
X81022341Y-56915638D01*
X80881563Y-56860122D01*
X80793105Y-56849500D01*
X80793102Y-56849500D01*
X79206898Y-56849500D01*
X79206894Y-56849500D01*
X79118436Y-56860122D01*
X78977658Y-56915638D01*
X78977658Y-56915639D01*
X78857079Y-57007076D01*
X78857076Y-57007079D01*
X78765639Y-57127658D01*
X78765638Y-57127658D01*
X78710122Y-57268436D01*
X78699500Y-57356894D01*
X78699500Y-58643105D01*
X78710122Y-58731563D01*
X78765638Y-58872341D01*
X78765639Y-58872342D01*
X78857078Y-58992922D01*
X78977658Y-59084361D01*
X79065534Y-59119015D01*
X79127512Y-59164913D01*
X79158241Y-59235656D01*
X79149481Y-59312285D01*
X79103580Y-59374267D01*
X79096333Y-59379677D01*
X78978921Y-59461890D01*
X78811888Y-59628923D01*
X78676406Y-59822411D01*
X78676400Y-59822420D01*
X78576569Y-60036508D01*
X78576568Y-60036510D01*
X78519364Y-60249999D01*
X78519364Y-60250000D01*
X79566314Y-60250000D01*
X79540507Y-60290156D01*
X79500000Y-60428111D01*
X79500000Y-60571889D01*
X79540507Y-60709844D01*
X79566314Y-60750000D01*
X78519364Y-60750000D01*
X76500500Y-60750000D01*
X76500500Y-41902426D01*
X76520462Y-41827926D01*
X76575000Y-41773388D01*
X76649500Y-41753426D01*
X76724000Y-41773388D01*
X76778538Y-41827926D01*
X76782261Y-41834783D01*
X76791304Y-41852533D01*
X76791311Y-41852545D01*
X77002528Y-42177789D01*
X77211096Y-42435349D01*
X78702266Y-40944179D01*
X78865130Y-41134870D01*
X79055819Y-41297733D01*
X77564649Y-42788903D01*
X77822213Y-42997473D01*
X77822215Y-42997475D01*
X78147454Y-43208688D01*
X78147474Y-43208699D01*
X78492998Y-43384751D01*
X78493022Y-43384762D01*
X78855052Y-43523733D01*
X78855072Y-43523740D01*
X79229661Y-43624110D01*
X79229664Y-43624111D01*
X79612719Y-43684781D01*
X80000000Y-43705077D01*
X80387280Y-43684781D01*
X80770335Y-43624111D01*
X80770338Y-43624110D01*
X81144927Y-43523740D01*
X81144947Y-43523733D01*
X81506977Y-43384762D01*
X81507001Y-43384751D01*
X81852525Y-43208699D01*
X81852545Y-43208688D01*
X82177785Y-42997474D01*
X82435349Y-42788902D01*
X80944180Y-41297733D01*
X81134870Y-41134870D01*
X81297733Y-40944180D01*
X82788902Y-42435349D01*
X82997474Y-42177785D01*
X83208688Y-41852545D01*
X83208699Y-41852525D01*
X83384751Y-41507001D01*
X83384762Y-41506977D01*
X83523733Y-41144947D01*
X83523740Y-41144927D01*
X83624110Y-40770338D01*
X83624111Y-40770335D01*
X83684781Y-40387280D01*
X83691975Y-40250000D01*
X103153592Y-40250000D01*
X103165431Y-40385322D01*
X103226568Y-40613487D01*
X103326402Y-40827580D01*
X103461891Y-41021079D01*
X103628923Y-41188111D01*
X103822411Y-41323593D01*
X103822420Y-41323599D01*
X104036508Y-41423430D01*
X104036513Y-41423432D01*
X104250000Y-41480634D01*
X104250000Y-40435501D01*
X104357685Y-40484680D01*
X104464237Y-40500000D01*
X104535763Y-40500000D01*
X104642315Y-40484680D01*
X104750000Y-40435501D01*
X104750000Y-41480633D01*
X104963486Y-41423432D01*
X105177580Y-41323597D01*
X105371079Y-41188108D01*
X105538107Y-41021080D01*
X105620321Y-40903667D01*
X105679405Y-40854090D01*
X105755361Y-40840697D01*
X105827838Y-40867076D01*
X105877415Y-40926160D01*
X105880986Y-40934469D01*
X105915639Y-41022342D01*
X106007078Y-41142922D01*
X106127658Y-41234361D01*
X106268436Y-41289877D01*
X106356898Y-41300500D01*
X106356899Y-41300500D01*
X107643101Y-41300500D01*
X107643102Y-41300500D01*
X107731564Y-41289877D01*
X107872342Y-41234361D01*
X107992922Y-41142922D01*
X108084361Y-41022342D01*
X108139877Y-40881564D01*
X108150500Y-40793102D01*
X108150500Y-39206898D01*
X108139877Y-39118436D01*
X108084361Y-38977658D01*
X107992922Y-38857078D01*
X107992920Y-38857076D01*
X107933330Y-38811888D01*
X107872342Y-38765639D01*
X107872341Y-38765638D01*
X107731563Y-38710122D01*
X107643105Y-38699500D01*
X107643102Y-38699500D01*
X106356898Y-38699500D01*
X106356894Y-38699500D01*
X106268436Y-38710122D01*
X106127658Y-38765638D01*
X106127658Y-38765639D01*
X106007079Y-38857076D01*
X106007076Y-38857079D01*
X105915639Y-38977658D01*
X105915638Y-38977658D01*
X105880986Y-39065531D01*
X105835085Y-39127513D01*
X105764342Y-39158241D01*
X105687713Y-39149480D01*
X105625731Y-39103579D01*
X105620321Y-39096332D01*
X105538108Y-38978920D01*
X105371076Y-38811888D01*
X105177588Y-38676406D01*
X105177579Y-38676400D01*
X104963491Y-38576569D01*
X104963489Y-38576568D01*
X104750000Y-38519364D01*
X104750000Y-39564498D01*
X104642315Y-39515320D01*
X104535763Y-39500000D01*
X104464237Y-39500000D01*
X104357685Y-39515320D01*
X104250000Y-39564498D01*
X104250000Y-38519364D01*
X104249999Y-38519364D01*
X104036512Y-38576568D01*
X103822419Y-38676402D01*
X103628920Y-38811891D01*
X103461891Y-38978920D01*
X103326402Y-39172419D01*
X103226568Y-39386512D01*
X103165431Y-39614677D01*
X103153592Y-39749999D01*
X103153593Y-39750000D01*
X104066314Y-39750000D01*
X104040507Y-39790156D01*
X104000000Y-39928111D01*
X104000000Y-40071889D01*
X104040507Y-40209844D01*
X104066314Y-40250000D01*
X103153592Y-40250000D01*
X83691975Y-40250000D01*
X83705077Y-40000000D01*
X83684781Y-39612719D01*
X83624111Y-39229664D01*
X83624110Y-39229661D01*
X83523740Y-38855072D01*
X83523733Y-38855052D01*
X83384762Y-38493022D01*
X83384751Y-38492998D01*
X83208699Y-38147474D01*
X83208688Y-38147454D01*
X82997475Y-37822215D01*
X82997473Y-37822213D01*
X82788903Y-37564649D01*
X81297733Y-39055818D01*
X81134870Y-38865130D01*
X80944180Y-38702266D01*
X82435350Y-37211096D01*
X82177789Y-37002528D01*
X81852545Y-36791311D01*
X81852533Y-36791304D01*
X81834783Y-36782261D01*
X81777465Y-36730652D01*
X81753630Y-36657300D01*
X81769665Y-36581857D01*
X81821274Y-36524539D01*
X81894626Y-36500704D01*
X81902426Y-36500500D01*
X128097574Y-36500500D01*
X128172074Y-36520462D01*
G37*
%TD.AperFunction*%
%TD*%
M02*
