%TF.GenerationSoftware,KiCad,Pcbnew,7.0.10-7.0.10~ubuntu22.04.1*%
%TF.CreationDate,2024-02-27T10:58:37+01:00*%
%TF.ProjectId,KiCAD,4b694341-442e-46b6-9963-61645f706362,rev?*%
%TF.SameCoordinates,Original*%
%TF.FileFunction,Copper,L1,Top*%
%TF.FilePolarity,Positive*%
%FSLAX46Y46*%
G04 Gerber Fmt 4.6, Leading zero omitted, Abs format (unit mm)*
G04 Created by KiCad (PCBNEW 7.0.10-7.0.10~ubuntu22.04.1) date 2024-02-27 10:58:37*
%MOMM*%
%LPD*%
G01*
G04 APERTURE LIST*
G04 Aperture macros list*
%AMRoundRect*
0 Rectangle with rounded corners*
0 $1 Rounding radius*
0 $2 $3 $4 $5 $6 $7 $8 $9 X,Y pos of 4 corners*
0 Add a 4 corners polygon primitive as box body*
4,1,4,$2,$3,$4,$5,$6,$7,$8,$9,$2,$3,0*
0 Add four circle primitives for the rounded corners*
1,1,$1+$1,$2,$3*
1,1,$1+$1,$4,$5*
1,1,$1+$1,$6,$7*
1,1,$1+$1,$8,$9*
0 Add four rect primitives between the rounded corners*
20,1,$1+$1,$2,$3,$4,$5,0*
20,1,$1+$1,$4,$5,$6,$7,0*
20,1,$1+$1,$6,$7,$8,$9,0*
20,1,$1+$1,$8,$9,$2,$3,0*%
G04 Aperture macros list end*
%TA.AperFunction,SMDPad,CuDef*%
%ADD10RoundRect,0.250000X-0.337500X-0.475000X0.337500X-0.475000X0.337500X0.475000X-0.337500X0.475000X0*%
%TD*%
%TA.AperFunction,SMDPad,CuDef*%
%ADD11RoundRect,0.250000X-0.475000X0.337500X-0.475000X-0.337500X0.475000X-0.337500X0.475000X0.337500X0*%
%TD*%
%TA.AperFunction,SMDPad,CuDef*%
%ADD12RoundRect,0.250000X0.475000X-0.337500X0.475000X0.337500X-0.475000X0.337500X-0.475000X-0.337500X0*%
%TD*%
%TA.AperFunction,ComponentPad*%
%ADD13C,6.400000*%
%TD*%
%TA.AperFunction,SMDPad,CuDef*%
%ADD14RoundRect,0.237500X-0.237500X0.287500X-0.237500X-0.287500X0.237500X-0.287500X0.237500X0.287500X0*%
%TD*%
%TA.AperFunction,ComponentPad*%
%ADD15RoundRect,0.250000X-0.750000X0.600000X-0.750000X-0.600000X0.750000X-0.600000X0.750000X0.600000X0*%
%TD*%
%TA.AperFunction,ComponentPad*%
%ADD16O,2.000000X1.700000*%
%TD*%
%TA.AperFunction,SMDPad,CuDef*%
%ADD17RoundRect,0.250000X0.450000X-0.350000X0.450000X0.350000X-0.450000X0.350000X-0.450000X-0.350000X0*%
%TD*%
%TA.AperFunction,ComponentPad*%
%ADD18RoundRect,0.250000X0.750000X-0.600000X0.750000X0.600000X-0.750000X0.600000X-0.750000X-0.600000X0*%
%TD*%
%TA.AperFunction,SMDPad,CuDef*%
%ADD19RoundRect,0.250000X0.350000X0.450000X-0.350000X0.450000X-0.350000X-0.450000X0.350000X-0.450000X0*%
%TD*%
%TA.AperFunction,SMDPad,CuDef*%
%ADD20RoundRect,0.150000X0.512500X0.150000X-0.512500X0.150000X-0.512500X-0.150000X0.512500X-0.150000X0*%
%TD*%
%TA.AperFunction,SMDPad,CuDef*%
%ADD21R,0.740000X2.400000*%
%TD*%
%TA.AperFunction,SMDPad,CuDef*%
%ADD22RoundRect,0.237500X0.287500X0.237500X-0.287500X0.237500X-0.287500X-0.237500X0.287500X-0.237500X0*%
%TD*%
%TA.AperFunction,SMDPad,CuDef*%
%ADD23RoundRect,0.250000X-0.350000X0.275000X-0.350000X-0.275000X0.350000X-0.275000X0.350000X0.275000X0*%
%TD*%
%TA.AperFunction,ComponentPad*%
%ADD24RoundRect,0.250000X0.600000X0.750000X-0.600000X0.750000X-0.600000X-0.750000X0.600000X-0.750000X0*%
%TD*%
%TA.AperFunction,ComponentPad*%
%ADD25O,1.700000X2.000000*%
%TD*%
%TA.AperFunction,SMDPad,CuDef*%
%ADD26RoundRect,0.125000X-0.625000X-0.125000X0.625000X-0.125000X0.625000X0.125000X-0.625000X0.125000X0*%
%TD*%
%TA.AperFunction,SMDPad,CuDef*%
%ADD27RoundRect,0.125000X-0.125000X-0.625000X0.125000X-0.625000X0.125000X0.625000X-0.125000X0.625000X0*%
%TD*%
%TA.AperFunction,SMDPad,CuDef*%
%ADD28RoundRect,0.150000X0.825000X0.150000X-0.825000X0.150000X-0.825000X-0.150000X0.825000X-0.150000X0*%
%TD*%
%TA.AperFunction,ViaPad*%
%ADD29C,0.800000*%
%TD*%
%TA.AperFunction,Conductor*%
%ADD30C,0.300000*%
%TD*%
%TA.AperFunction,Conductor*%
%ADD31C,0.500000*%
%TD*%
G04 APERTURE END LIST*
D10*
%TO.P,C10,1*%
%TO.N,+3.3VA*%
X110100000Y-71600000D03*
%TO.P,C10,2*%
%TO.N,GND*%
X112175000Y-71600000D03*
%TD*%
D11*
%TO.P,C8,1*%
%TO.N,+5V*%
X99000000Y-37912500D03*
%TO.P,C8,2*%
%TO.N,GND*%
X99000000Y-39987500D03*
%TD*%
D12*
%TO.P,C7,1*%
%TO.N,+3.3V*%
X92000000Y-39987500D03*
%TO.P,C7,2*%
%TO.N,GND*%
X92000000Y-37912500D03*
%TD*%
%TO.P,C6,1*%
%TO.N,NRST*%
X97100000Y-60737500D03*
%TO.P,C6,2*%
%TO.N,GND*%
X97100000Y-58662500D03*
%TD*%
D10*
%TO.P,C9,1*%
%TO.N,+3.3VA*%
X110100000Y-73600000D03*
%TO.P,C9,2*%
%TO.N,GND*%
X112175000Y-73600000D03*
%TD*%
D13*
%TO.P,H1,1,1*%
%TO.N,GND*%
X80000000Y-40000000D03*
%TD*%
%TO.P,H4,1,1*%
%TO.N,GND*%
X130000000Y-80000000D03*
%TD*%
D14*
%TO.P,D2,1,K*%
%TO.N,Net-(D2-K)*%
X90000000Y-42250000D03*
%TO.P,D2,2,A*%
%TO.N,+3.3V*%
X90000000Y-44000000D03*
%TD*%
D15*
%TO.P,J3,1,Pin_1*%
%TO.N,ADC_IN1*%
X80000000Y-58000000D03*
D16*
%TO.P,J3,2,Pin_2*%
%TO.N,GND*%
X80000000Y-60500000D03*
%TD*%
D12*
%TO.P,C4,1*%
%TO.N,+3.3VA*%
X90982500Y-65017500D03*
%TO.P,C4,2*%
%TO.N,GND*%
X90982500Y-62942500D03*
%TD*%
D11*
%TO.P,C1,2*%
%TO.N,GND*%
X112100000Y-67112500D03*
%TO.P,C1,1*%
%TO.N,+3.3V*%
X112100000Y-65037500D03*
%TD*%
D17*
%TO.P,R3,1*%
%TO.N,Net-(D2-K)*%
X90000000Y-40000000D03*
%TO.P,R3,2*%
%TO.N,GND*%
X90000000Y-38000000D03*
%TD*%
D18*
%TO.P,J4,1,Pin_1*%
%TO.N,DAC_OUT*%
X130000000Y-61500000D03*
D16*
%TO.P,J4,2,Pin_2*%
%TO.N,GND*%
X130000000Y-59000000D03*
%TD*%
D19*
%TO.P,R1,2*%
%TO.N,GND*%
X111300000Y-59900000D03*
%TO.P,R1,1*%
%TO.N,Net-(D1-K)*%
X113300000Y-59900000D03*
%TD*%
D20*
%TO.P,U2,1,VIN*%
%TO.N,+5V*%
X96275000Y-39900000D03*
%TO.P,U2,2,GND*%
%TO.N,GND*%
X96275000Y-38950000D03*
%TO.P,U2,3,~{SHDN}*%
%TO.N,+5V*%
X96275000Y-38000000D03*
%TO.P,U2,4,NC*%
%TO.N,unconnected-(U2-NC-Pad4)*%
X94000000Y-38000000D03*
%TO.P,U2,5,VOUT*%
%TO.N,+3.3V*%
X94000000Y-39900000D03*
%TD*%
D21*
%TO.P,J1,1,Pin_1*%
%TO.N,unconnected-(J1-Pin_1-Pad1)*%
X86820000Y-74500000D03*
%TO.P,J1,2,Pin_2*%
%TO.N,unconnected-(J1-Pin_2-Pad2)*%
X86820000Y-70600000D03*
%TO.P,J1,3,Pin_3*%
%TO.N,+3.3V*%
X88090000Y-74500000D03*
%TO.P,J1,4,Pin_4*%
%TO.N,SWDIO*%
X88090000Y-70600000D03*
%TO.P,J1,5,Pin_5*%
%TO.N,GND*%
X89360000Y-74500000D03*
%TO.P,J1,6,Pin_6*%
%TO.N,SWCLK*%
X89360000Y-70600000D03*
%TO.P,J1,7,Pin_7*%
%TO.N,GND*%
X90630000Y-74500000D03*
%TO.P,J1,8,Pin_8*%
%TO.N,unconnected-(J1-Pin_8-Pad8)*%
X90630000Y-70600000D03*
%TO.P,J1,9,Pin_9*%
%TO.N,unconnected-(J1-Pin_9-Pad9)*%
X91900000Y-74500000D03*
%TO.P,J1,10,Pin_10*%
%TO.N,unconnected-(J1-Pin_10-Pad10)*%
X91900000Y-70600000D03*
%TO.P,J1,11,Pin_11*%
%TO.N,GND*%
X93170000Y-74500000D03*
%TO.P,J1,12,Pin_12*%
%TO.N,NRST*%
X93170000Y-70600000D03*
%TO.P,J1,13,Pin_13*%
%TO.N,USART2_RX*%
X94440000Y-74500000D03*
%TO.P,J1,14,Pin_14*%
%TO.N,USART2_TX*%
X94440000Y-70600000D03*
%TD*%
D22*
%TO.P,D1,2,A*%
%TO.N,LED_STATUS*%
X111425000Y-61700000D03*
%TO.P,D1,1,K*%
%TO.N,Net-(D1-K)*%
X113175000Y-61700000D03*
%TD*%
D23*
%TO.P,L1,1*%
%TO.N,+3.3V*%
X95000000Y-63000000D03*
%TO.P,L1,2*%
%TO.N,+3.3VA*%
X95000000Y-65300000D03*
%TD*%
D12*
%TO.P,C5,1*%
%TO.N,+3.3VA*%
X92982500Y-65017500D03*
%TO.P,C5,2*%
%TO.N,GND*%
X92982500Y-62942500D03*
%TD*%
D24*
%TO.P,J2,1,Pin_1*%
%TO.N,+5V*%
X107000000Y-40000000D03*
D25*
%TO.P,J2,2,Pin_2*%
%TO.N,GND*%
X104500000Y-40000000D03*
%TD*%
D13*
%TO.P,H2,1,1*%
%TO.N,GND*%
X80000000Y-80000000D03*
%TD*%
D26*
%TO.P,U1,1,VDD*%
%TO.N,+3.3V*%
X101025000Y-57375000D03*
%TO.P,U1,2,PC14*%
%TO.N,unconnected-(U1-PC14-Pad2)*%
X101025000Y-58175000D03*
%TO.P,U1,3,PC15*%
%TO.N,unconnected-(U1-PC15-Pad3)*%
X101025000Y-58975000D03*
%TO.P,U1,4,NRST*%
%TO.N,NRST*%
X101025000Y-59775000D03*
%TO.P,U1,5,VDDA*%
%TO.N,+3.3VA*%
X101025000Y-60575000D03*
%TO.P,U1,6,PA0*%
%TO.N,USART2_RX*%
X101025000Y-61375000D03*
%TO.P,U1,7,PA1*%
%TO.N,ADC_IN1*%
X101025000Y-62175000D03*
%TO.P,U1,8,PA2*%
%TO.N,USART2_TX*%
X101025000Y-62975000D03*
D27*
%TO.P,U1,9,PA3*%
%TO.N,DAC_nLDAC*%
X102400000Y-64350000D03*
%TO.P,U1,10,PA4*%
%TO.N,DAC_nCS*%
X103200000Y-64350000D03*
%TO.P,U1,11,PA5*%
%TO.N,SPI1_SCK*%
X104000000Y-64350000D03*
%TO.P,U1,12,PA6*%
%TO.N,unconnected-(U1-PA6-Pad12)*%
X104800000Y-64350000D03*
%TO.P,U1,13,PA7*%
%TO.N,SPI1_MOSI*%
X105600000Y-64350000D03*
%TO.P,U1,14,PB0*%
%TO.N,unconnected-(U1-PB0-Pad14)*%
X106400000Y-64350000D03*
%TO.P,U1,15,PB1*%
%TO.N,unconnected-(U1-PB1-Pad15)*%
X107200000Y-64350000D03*
%TO.P,U1,16,VSS*%
%TO.N,GND*%
X108000000Y-64350000D03*
D26*
%TO.P,U1,17,VDD*%
%TO.N,+3.3V*%
X109375000Y-62975000D03*
%TO.P,U1,18,PA8*%
%TO.N,LED_STATUS*%
X109375000Y-62175000D03*
%TO.P,U1,19,PA9*%
%TO.N,unconnected-(U1-PA9-Pad19)*%
X109375000Y-61375000D03*
%TO.P,U1,20,PA10*%
%TO.N,unconnected-(U1-PA10-Pad20)*%
X109375000Y-60575000D03*
%TO.P,U1,21,PA11*%
%TO.N,unconnected-(U1-PA11-Pad21)*%
X109375000Y-59775000D03*
%TO.P,U1,22,PA12*%
%TO.N,unconnected-(U1-PA12-Pad22)*%
X109375000Y-58975000D03*
%TO.P,U1,23,PA13*%
%TO.N,SWDIO*%
X109375000Y-58175000D03*
%TO.P,U1,24,PA14*%
%TO.N,SWCLK*%
X109375000Y-57375000D03*
D27*
%TO.P,U1,25,PA15*%
%TO.N,unconnected-(U1-PA15-Pad25)*%
X108000000Y-56000000D03*
%TO.P,U1,26,PB3*%
%TO.N,unconnected-(U1-PB3-Pad26)*%
X107200000Y-56000000D03*
%TO.P,U1,27,PB4*%
%TO.N,unconnected-(U1-PB4-Pad27)*%
X106400000Y-56000000D03*
%TO.P,U1,28,PB5*%
%TO.N,unconnected-(U1-PB5-Pad28)*%
X105600000Y-56000000D03*
%TO.P,U1,29,PB6*%
%TO.N,unconnected-(U1-PB6-Pad29)*%
X104800000Y-56000000D03*
%TO.P,U1,30,PB7*%
%TO.N,unconnected-(U1-PB7-Pad30)*%
X104000000Y-56000000D03*
%TO.P,U1,31,PB9*%
%TO.N,Net-(U1-PB9)*%
X103200000Y-56000000D03*
%TO.P,U1,32,VSS*%
%TO.N,GND*%
X102400000Y-56000000D03*
%TD*%
D12*
%TO.P,C2,1*%
%TO.N,+3.3V*%
X100000000Y-55000000D03*
%TO.P,C2,2*%
%TO.N,GND*%
X100000000Y-52925000D03*
%TD*%
D28*
%TO.P,U3,1,Vdd*%
%TO.N,+3.3VA*%
X107950000Y-73810000D03*
%TO.P,U3,2,~{CS}*%
%TO.N,DAC_nCS*%
X107950000Y-72540000D03*
%TO.P,U3,3,SCK*%
%TO.N,SPI1_SCK*%
X107950000Y-71270000D03*
%TO.P,U3,4,SDI*%
%TO.N,SPI1_MOSI*%
X107950000Y-70000000D03*
%TO.P,U3,5,~{LDAC}*%
%TO.N,DAC_nLDAC*%
X103000000Y-70000000D03*
%TO.P,U3,6,~{SHDN}*%
%TO.N,+3.3VA*%
X103000000Y-71270000D03*
%TO.P,U3,7,Vss*%
%TO.N,GND*%
X103000000Y-72540000D03*
%TO.P,U3,8,Vout*%
%TO.N,DAC_OUT*%
X103000000Y-73810000D03*
%TD*%
D13*
%TO.P,H3,1,1*%
%TO.N,GND*%
X130000000Y-40000000D03*
%TD*%
D17*
%TO.P,R2,1*%
%TO.N,Net-(U1-PB9)*%
X103000000Y-53000000D03*
%TO.P,R2,2*%
%TO.N,GND*%
X103000000Y-51000000D03*
%TD*%
D11*
%TO.P,C3,1*%
%TO.N,+3.3V*%
X110000000Y-65000000D03*
%TO.P,C3,2*%
%TO.N,GND*%
X110000000Y-67075000D03*
%TD*%
D29*
%TO.N,GND*%
X99100000Y-58600000D03*
%TO.N,+3.3V*%
X93700000Y-60300000D03*
X85200000Y-68100000D03*
%TO.N,NRST*%
X96300000Y-61900000D03*
X87498959Y-66701041D03*
%TO.N,SWCLK*%
X110900000Y-56900000D03*
%TO.N,SWDIO*%
X111000000Y-58200000D03*
X88512155Y-68436912D03*
%TO.N,SWCLK*%
X89600000Y-68600000D03*
%TO.N,USART2_RX*%
X94500000Y-76600000D03*
X95300000Y-66650000D03*
%TO.N,+3.3VA*%
X101100000Y-71300000D03*
X96400000Y-65300000D03*
%TD*%
D30*
%TO.N,GND*%
X111300000Y-59900000D02*
X112700000Y-58500000D01*
X112700000Y-58500000D02*
X112700000Y-58000000D01*
D31*
%TO.N,+3.3V*%
X93700000Y-60300000D02*
X93700000Y-61700000D01*
X93700000Y-61700000D02*
X95000000Y-63000000D01*
X85200000Y-68100000D02*
X85200000Y-68150000D01*
X85200000Y-68150000D02*
X85900000Y-68850000D01*
X88090000Y-73100000D02*
X88090000Y-74500000D01*
X85900000Y-68850000D02*
X85900000Y-72350000D01*
X85900000Y-72350000D02*
X86150000Y-72600000D01*
X87590000Y-72600000D02*
X88090000Y-73100000D01*
X86150000Y-72600000D02*
X87590000Y-72600000D01*
D30*
%TO.N,NRST*%
X93170000Y-70600000D02*
X93170000Y-69100000D01*
X87697918Y-66900000D02*
X87498959Y-66701041D01*
X93170000Y-69100000D02*
X90970000Y-66900000D01*
X90970000Y-66900000D02*
X87697918Y-66900000D01*
X96300000Y-61537500D02*
X97100000Y-60737500D01*
X96300000Y-61900000D02*
X96300000Y-61537500D01*
%TO.N,ADC_IN1*%
X101025000Y-62175000D02*
X100025000Y-62175000D01*
X93747918Y-66300000D02*
X88300000Y-66300000D01*
X100025000Y-62175000D02*
X99400000Y-62800000D01*
X99400000Y-62800000D02*
X99400000Y-65451472D01*
X99400000Y-65451472D02*
X97351472Y-67500000D01*
X97351472Y-67500000D02*
X94947918Y-67500000D01*
X94947918Y-67500000D02*
X93747918Y-66300000D01*
X88300000Y-66300000D02*
X80000000Y-58000000D01*
%TO.N,SWCLK*%
X110425000Y-57375000D02*
X110900000Y-56900000D01*
X109375000Y-57375000D02*
X110425000Y-57375000D01*
%TO.N,SWDIO*%
X110975000Y-58175000D02*
X111000000Y-58200000D01*
X109375000Y-58175000D02*
X110975000Y-58175000D01*
X88090000Y-68859067D02*
X88512155Y-68436912D01*
X88090000Y-70600000D02*
X88090000Y-68859067D01*
%TO.N,SWCLK*%
X89360000Y-68840000D02*
X89600000Y-68600000D01*
X89360000Y-70600000D02*
X89360000Y-68840000D01*
%TO.N,USART2_RX*%
X94500000Y-76600000D02*
X94500000Y-74560000D01*
X94500000Y-74560000D02*
X94440000Y-74500000D01*
X95300000Y-66650000D02*
X95350000Y-66600000D01*
X98800000Y-62551472D02*
X99976472Y-61375000D01*
X95350000Y-66600000D02*
X97402944Y-66600000D01*
X97402944Y-66600000D02*
X98800000Y-65202944D01*
X98800000Y-65202944D02*
X98800000Y-62551472D01*
X99976472Y-61375000D02*
X101025000Y-61375000D01*
%TO.N,USART2_TX*%
X101025000Y-62975000D02*
X101025000Y-64675000D01*
X101025000Y-64675000D02*
X97200000Y-68500000D01*
X97200000Y-68500000D02*
X95100000Y-68500000D01*
X95100000Y-68500000D02*
X94440000Y-69160000D01*
X94440000Y-69160000D02*
X94440000Y-70600000D01*
D31*
%TO.N,+3.3VA*%
X102970000Y-71300000D02*
X103000000Y-71270000D01*
X96200000Y-65300000D02*
X96400000Y-65300000D01*
X101100000Y-71300000D02*
X102970000Y-71300000D01*
X95000000Y-65300000D02*
X96200000Y-65300000D01*
X101025000Y-60575000D02*
X99225000Y-60575000D01*
X99225000Y-60575000D02*
X95000000Y-64800000D01*
X95000000Y-64800000D02*
X95000000Y-65300000D01*
%TO.N,+3.3V*%
X101025000Y-57375000D02*
X95925000Y-57375000D01*
X95925000Y-57375000D02*
X95000000Y-58300000D01*
X95000000Y-58300000D02*
X95000000Y-63000000D01*
D30*
%TO.N,NRST*%
X101025000Y-59775000D02*
X98062500Y-59775000D01*
X98062500Y-59775000D02*
X97100000Y-60737500D01*
%TO.N,Net-(D1-K)*%
X113300000Y-59900000D02*
X113300000Y-61575000D01*
X113300000Y-61575000D02*
X113175000Y-61700000D01*
%TO.N,LED_STATUS*%
X109375000Y-62175000D02*
X110950000Y-62175000D01*
X110950000Y-62175000D02*
X111425000Y-61700000D01*
D31*
%TO.N,+3.3V*%
X101025000Y-57375000D02*
X102066942Y-57375000D01*
X102066942Y-57375000D02*
X107666942Y-62975000D01*
X107666942Y-62975000D02*
X109375000Y-62975000D01*
D30*
%TO.N,DAC_OUT*%
X103000000Y-73810000D02*
X104810000Y-73810000D01*
X104810000Y-73810000D02*
X106100000Y-75100000D01*
X106100000Y-75100000D02*
X119200000Y-75100000D01*
X119200000Y-75100000D02*
X130000000Y-64300000D01*
X130000000Y-64300000D02*
X130000000Y-61500000D01*
D31*
%TO.N,+3.3VA*%
X107950000Y-73810000D02*
X109890000Y-73810000D01*
X109890000Y-73810000D02*
X110100000Y-73600000D01*
X110100000Y-71600000D02*
X110100000Y-73600000D01*
D30*
%TO.N,SPI1_SCK*%
X106470000Y-71270000D02*
X107950000Y-71270000D01*
X105700000Y-70500000D02*
X106470000Y-71270000D01*
X105700000Y-68551472D02*
X105700000Y-70500000D01*
X104000000Y-66851472D02*
X105700000Y-68551472D01*
X104000000Y-64350000D02*
X104000000Y-66851472D01*
%TO.N,DAC_nCS*%
X103200000Y-64350000D02*
X103200000Y-66900000D01*
X103200000Y-66900000D02*
X104900000Y-68600000D01*
X104900000Y-68600000D02*
X104900000Y-70800000D01*
X104900000Y-70800000D02*
X106640000Y-72540000D01*
X106640000Y-72540000D02*
X107950000Y-72540000D01*
%TO.N,SPI1_MOSI*%
X107950000Y-70000000D02*
X107950000Y-68750000D01*
X107950000Y-68750000D02*
X105600000Y-66400000D01*
X105600000Y-66400000D02*
X105600000Y-64350000D01*
D31*
%TO.N,+3.3VA*%
X103000000Y-71270000D02*
X104170000Y-71270000D01*
X104170000Y-71270000D02*
X106710000Y-73810000D01*
X106710000Y-73810000D02*
X107950000Y-73810000D01*
D30*
%TO.N,DAC_nLDAC*%
X102400000Y-64350000D02*
X102400000Y-68100000D01*
X102400000Y-68100000D02*
X101500000Y-69000000D01*
X101500000Y-69000000D02*
X101500000Y-69700000D01*
X101500000Y-69700000D02*
X101800000Y-70000000D01*
X101800000Y-70000000D02*
X103000000Y-70000000D01*
%TO.N,SPI1_SCK*%
X107950000Y-71270000D02*
X108730000Y-71270000D01*
D31*
%TO.N,+3.3V*%
X112100000Y-65037500D02*
X110037500Y-65037500D01*
X110037500Y-65037500D02*
X110000000Y-65000000D01*
X109375000Y-62975000D02*
X109375000Y-64375000D01*
X109375000Y-64375000D02*
X110000000Y-65000000D01*
%TO.N,+3.3VA*%
X90982500Y-65017500D02*
X94717500Y-65017500D01*
X94717500Y-65017500D02*
X95000000Y-65300000D01*
D30*
%TO.N,Net-(U1-PB9)*%
X103000000Y-53000000D02*
X103200000Y-53200000D01*
X103200000Y-53200000D02*
X103200000Y-56000000D01*
D31*
%TO.N,+3.3V*%
X100000000Y-55000000D02*
X100000000Y-56350000D01*
X100000000Y-56350000D02*
X101025000Y-57375000D01*
X90000000Y-44000000D02*
X90000000Y-45000000D01*
X90000000Y-45000000D02*
X100000000Y-55000000D01*
%TO.N,+5V*%
X97487500Y-38505894D02*
X97543394Y-38450000D01*
X97543394Y-38450000D02*
X105450000Y-38450000D01*
X105450000Y-38450000D02*
X107000000Y-40000000D01*
X96275000Y-39900000D02*
X96981606Y-39900000D01*
X96981606Y-39900000D02*
X97487500Y-39394106D01*
X97487500Y-39394106D02*
X97487500Y-38505894D01*
X97487500Y-38505894D02*
X96981606Y-38000000D01*
X96981606Y-38000000D02*
X96275000Y-38000000D01*
%TO.N,+3.3V*%
X92000000Y-39900000D02*
X94000000Y-39900000D01*
D30*
%TO.N,Net-(D2-K)*%
X90000000Y-40000000D02*
X90000000Y-42250000D01*
D31*
%TO.N,+3.3V*%
X90000000Y-44000000D02*
X92000000Y-42000000D01*
X92000000Y-42000000D02*
X92000000Y-39900000D01*
%TD*%
%TA.AperFunction,Conductor*%
%TO.N,GND*%
G36*
X99900000Y-57945462D02*
G01*
X99954538Y-58000000D01*
X99974500Y-58074500D01*
X99974500Y-58333488D01*
X99985772Y-58404658D01*
X99990281Y-58433128D01*
X99990282Y-58433129D01*
X100028102Y-58507356D01*
X100044138Y-58582799D01*
X100028102Y-58642644D01*
X99990282Y-58716870D01*
X99990281Y-58716871D01*
X99985034Y-58750000D01*
X99974500Y-58816512D01*
X99974500Y-59133488D01*
X99977462Y-59152194D01*
X99969400Y-59228898D01*
X99924065Y-59291296D01*
X99853605Y-59322666D01*
X99830297Y-59324500D01*
X98461952Y-59324500D01*
X98387452Y-59304538D01*
X98332914Y-59250000D01*
X98312952Y-59175500D01*
X98313724Y-59160357D01*
X98324999Y-59049989D01*
X98325000Y-59049979D01*
X98325000Y-58912500D01*
X95875001Y-58912500D01*
X95875001Y-59049973D01*
X95885494Y-59152696D01*
X95940642Y-59319121D01*
X96032680Y-59468340D01*
X96156659Y-59592319D01*
X96313264Y-59688913D01*
X96311661Y-59691511D01*
X96358787Y-59731029D01*
X96385189Y-59803498D01*
X96371819Y-59879458D01*
X96326792Y-59935254D01*
X96232076Y-60007079D01*
X96140639Y-60127658D01*
X96140638Y-60127658D01*
X96085122Y-60268436D01*
X96074500Y-60356894D01*
X96074500Y-61064178D01*
X96054538Y-61138678D01*
X96030857Y-61169539D01*
X96005251Y-61195144D01*
X95992797Y-61206273D01*
X95966032Y-61227618D01*
X95934094Y-61274461D01*
X95930870Y-61279003D01*
X95914272Y-61301492D01*
X95893194Y-61324540D01*
X95798306Y-61408604D01*
X95729304Y-61443065D01*
X95652317Y-61438408D01*
X95587972Y-61395882D01*
X95553511Y-61326880D01*
X95550500Y-61297076D01*
X95550500Y-58589742D01*
X95570462Y-58515242D01*
X95594137Y-58484387D01*
X95665155Y-58413369D01*
X95731948Y-58374807D01*
X95809076Y-58374807D01*
X95874362Y-58412500D01*
X98324999Y-58412500D01*
X98324999Y-58275026D01*
X98314505Y-58172303D01*
X98297627Y-58121368D01*
X98293142Y-58044371D01*
X98327756Y-57975446D01*
X98392196Y-57933063D01*
X98439064Y-57925500D01*
X99825500Y-57925500D01*
X99900000Y-57945462D01*
G37*
%TD.AperFunction*%
%TA.AperFunction,Conductor*%
G36*
X128172074Y-36520462D02*
G01*
X128226612Y-36575000D01*
X128246574Y-36649500D01*
X128226612Y-36724000D01*
X128172074Y-36778538D01*
X128165217Y-36782261D01*
X128147466Y-36791304D01*
X128147454Y-36791311D01*
X127822210Y-37002528D01*
X127564649Y-37211095D01*
X127564648Y-37211095D01*
X129055819Y-38702266D01*
X128865130Y-38865130D01*
X128702266Y-39055819D01*
X127211095Y-37564648D01*
X127211095Y-37564649D01*
X127002528Y-37822210D01*
X126791311Y-38147454D01*
X126791300Y-38147474D01*
X126615248Y-38492998D01*
X126615237Y-38493022D01*
X126476266Y-38855052D01*
X126476259Y-38855072D01*
X126375889Y-39229661D01*
X126375888Y-39229664D01*
X126315218Y-39612719D01*
X126294922Y-40000000D01*
X126315218Y-40387280D01*
X126375888Y-40770335D01*
X126375889Y-40770338D01*
X126476259Y-41144927D01*
X126476266Y-41144947D01*
X126615237Y-41506977D01*
X126615248Y-41507001D01*
X126791300Y-41852525D01*
X126791311Y-41852545D01*
X127002528Y-42177789D01*
X127211096Y-42435350D01*
X128702265Y-40944179D01*
X128865130Y-41134870D01*
X129055819Y-41297733D01*
X127564649Y-42788903D01*
X127822213Y-42997473D01*
X127822215Y-42997475D01*
X128147454Y-43208688D01*
X128147474Y-43208699D01*
X128492998Y-43384751D01*
X128493022Y-43384762D01*
X128855052Y-43523733D01*
X128855072Y-43523740D01*
X129229661Y-43624110D01*
X129229664Y-43624111D01*
X129612719Y-43684781D01*
X130000000Y-43705077D01*
X130387280Y-43684781D01*
X130770335Y-43624111D01*
X130770338Y-43624110D01*
X131144927Y-43523740D01*
X131144947Y-43523733D01*
X131506977Y-43384762D01*
X131507001Y-43384751D01*
X131852525Y-43208699D01*
X131852545Y-43208688D01*
X132177785Y-42997474D01*
X132435349Y-42788902D01*
X130944180Y-41297733D01*
X131134870Y-41134870D01*
X131297733Y-40944180D01*
X132788902Y-42435349D01*
X132997474Y-42177785D01*
X133208688Y-41852545D01*
X133208695Y-41852533D01*
X133217739Y-41834783D01*
X133269348Y-41777465D01*
X133342700Y-41753630D01*
X133418143Y-41769665D01*
X133475461Y-41821274D01*
X133499296Y-41894626D01*
X133499500Y-41902426D01*
X133499500Y-78097573D01*
X133479538Y-78172073D01*
X133425000Y-78226611D01*
X133350500Y-78246573D01*
X133276000Y-78226611D01*
X133221462Y-78172073D01*
X133217741Y-78165219D01*
X133208699Y-78147475D01*
X133208688Y-78147454D01*
X132997475Y-77822215D01*
X132997473Y-77822213D01*
X132788903Y-77564649D01*
X131297733Y-79055819D01*
X131134870Y-78865130D01*
X130944179Y-78702265D01*
X132435350Y-77211096D01*
X132177789Y-77002528D01*
X131852545Y-76791311D01*
X131852525Y-76791300D01*
X131507001Y-76615248D01*
X131506977Y-76615237D01*
X131144947Y-76476266D01*
X131144927Y-76476259D01*
X130770338Y-76375889D01*
X130770335Y-76375888D01*
X130387280Y-76315218D01*
X130000000Y-76294922D01*
X129612719Y-76315218D01*
X129229664Y-76375888D01*
X129229661Y-76375889D01*
X128855072Y-76476259D01*
X128855052Y-76476266D01*
X128493022Y-76615237D01*
X128492998Y-76615248D01*
X128147474Y-76791300D01*
X128147454Y-76791311D01*
X127822210Y-77002528D01*
X127564649Y-77211095D01*
X127564648Y-77211095D01*
X129055819Y-78702266D01*
X128865130Y-78865130D01*
X128702266Y-79055819D01*
X127211095Y-77564648D01*
X127211095Y-77564649D01*
X127002528Y-77822210D01*
X126791311Y-78147454D01*
X126791300Y-78147474D01*
X126615248Y-78492998D01*
X126615237Y-78493022D01*
X126476266Y-78855052D01*
X126476259Y-78855072D01*
X126375889Y-79229661D01*
X126375888Y-79229664D01*
X126315218Y-79612719D01*
X126294922Y-80000000D01*
X126315218Y-80387280D01*
X126375888Y-80770335D01*
X126375889Y-80770338D01*
X126476259Y-81144927D01*
X126476266Y-81144947D01*
X126615237Y-81506977D01*
X126615248Y-81507001D01*
X126791300Y-81852525D01*
X126791311Y-81852545D01*
X127002528Y-82177789D01*
X127211096Y-82435350D01*
X128702265Y-80944179D01*
X128865130Y-81134870D01*
X129055819Y-81297733D01*
X127564649Y-82788903D01*
X127822213Y-82997473D01*
X127822215Y-82997475D01*
X128147454Y-83208688D01*
X128147466Y-83208695D01*
X128165217Y-83217739D01*
X128222535Y-83269348D01*
X128246370Y-83342700D01*
X128230335Y-83418143D01*
X128178726Y-83475461D01*
X128105374Y-83499296D01*
X128097574Y-83499500D01*
X81902426Y-83499500D01*
X81827926Y-83479538D01*
X81773388Y-83425000D01*
X81753426Y-83350500D01*
X81773388Y-83276000D01*
X81827926Y-83221462D01*
X81834783Y-83217739D01*
X81852533Y-83208695D01*
X81852545Y-83208688D01*
X82177785Y-82997474D01*
X82435349Y-82788902D01*
X80944180Y-81297733D01*
X81134870Y-81134870D01*
X81297733Y-80944180D01*
X82788902Y-82435349D01*
X82997474Y-82177785D01*
X83208688Y-81852545D01*
X83208699Y-81852525D01*
X83384751Y-81507001D01*
X83384762Y-81506977D01*
X83523733Y-81144947D01*
X83523740Y-81144927D01*
X83624110Y-80770338D01*
X83624111Y-80770335D01*
X83684781Y-80387280D01*
X83705077Y-80000000D01*
X83684781Y-79612719D01*
X83624111Y-79229664D01*
X83624110Y-79229661D01*
X83523740Y-78855072D01*
X83523733Y-78855052D01*
X83384762Y-78493022D01*
X83384751Y-78492998D01*
X83208699Y-78147474D01*
X83208688Y-78147454D01*
X82997475Y-77822215D01*
X82997473Y-77822213D01*
X82788903Y-77564649D01*
X81297733Y-79055818D01*
X81134870Y-78865130D01*
X80944179Y-78702265D01*
X82435350Y-77211096D01*
X82177789Y-77002528D01*
X81852545Y-76791311D01*
X81852525Y-76791300D01*
X81507001Y-76615248D01*
X81506977Y-76615237D01*
X81144947Y-76476266D01*
X81144927Y-76476259D01*
X80770338Y-76375889D01*
X80770335Y-76375888D01*
X80387280Y-76315218D01*
X80000000Y-76294922D01*
X79612719Y-76315218D01*
X79229664Y-76375888D01*
X79229661Y-76375889D01*
X78855072Y-76476259D01*
X78855052Y-76476266D01*
X78493022Y-76615237D01*
X78492998Y-76615248D01*
X78147474Y-76791300D01*
X78147454Y-76791311D01*
X77822210Y-77002528D01*
X77564649Y-77211095D01*
X77564648Y-77211095D01*
X79055819Y-78702266D01*
X78865130Y-78865130D01*
X78702266Y-79055819D01*
X77211095Y-77564648D01*
X77211095Y-77564649D01*
X77002528Y-77822210D01*
X76791311Y-78147454D01*
X76791300Y-78147475D01*
X76782259Y-78165219D01*
X76730650Y-78222536D01*
X76657297Y-78246369D01*
X76581854Y-78230332D01*
X76524537Y-78178723D01*
X76500704Y-78105370D01*
X76500500Y-78097573D01*
X76500500Y-60750000D01*
X78519364Y-60750000D01*
X78576568Y-60963487D01*
X78676402Y-61177580D01*
X78811891Y-61371079D01*
X78978920Y-61538108D01*
X79172419Y-61673597D01*
X79386512Y-61773431D01*
X79614678Y-61834568D01*
X79614677Y-61834568D01*
X79749999Y-61846407D01*
X79750000Y-61846407D01*
X79750000Y-60935501D01*
X79857685Y-60984680D01*
X79964237Y-61000000D01*
X80035763Y-61000000D01*
X80142315Y-60984680D01*
X80250000Y-60935501D01*
X80250000Y-61846407D01*
X80385322Y-61834568D01*
X80613487Y-61773431D01*
X80827580Y-61673597D01*
X81021079Y-61538108D01*
X81188111Y-61371076D01*
X81323593Y-61177588D01*
X81323599Y-61177579D01*
X81423430Y-60963491D01*
X81423431Y-60963489D01*
X81480636Y-60750000D01*
X80433686Y-60750000D01*
X80459493Y-60709844D01*
X80500000Y-60571889D01*
X80500000Y-60428111D01*
X80459493Y-60290156D01*
X80433686Y-60250000D01*
X81551179Y-60250000D01*
X81625679Y-60269962D01*
X81656534Y-60293638D01*
X83947257Y-62584360D01*
X87207468Y-65844571D01*
X87246032Y-65911366D01*
X87246032Y-65988494D01*
X87207468Y-66055289D01*
X87171355Y-66081862D01*
X87098105Y-66120308D01*
X86970779Y-66233108D01*
X86970776Y-66233112D01*
X86874140Y-66373111D01*
X86813819Y-66532166D01*
X86793314Y-66701041D01*
X86813819Y-66869915D01*
X86874140Y-67028970D01*
X86874141Y-67028971D01*
X86970776Y-67168970D01*
X86970778Y-67168971D01*
X86970779Y-67168973D01*
X87098105Y-67281773D01*
X87098107Y-67281775D01*
X87248734Y-67360831D01*
X87413903Y-67401541D01*
X87584012Y-67401541D01*
X87584015Y-67401541D01*
X87749184Y-67360831D01*
X87749189Y-67360828D01*
X87750887Y-67360185D01*
X87754469Y-67359528D01*
X87757936Y-67358674D01*
X87757987Y-67358883D01*
X87803730Y-67350500D01*
X90721678Y-67350500D01*
X90796178Y-67370462D01*
X90827037Y-67394141D01*
X92278037Y-68845141D01*
X92316601Y-68911936D01*
X92316601Y-68989064D01*
X92278037Y-69055859D01*
X92211242Y-69094423D01*
X92172678Y-69099500D01*
X91485133Y-69099500D01*
X91460010Y-69102414D01*
X91460007Y-69102415D01*
X91357235Y-69147793D01*
X91349201Y-69153297D01*
X91276456Y-69178928D01*
X91200642Y-69164753D01*
X91180799Y-69153297D01*
X91172764Y-69147793D01*
X91069994Y-69102416D01*
X91069991Y-69102415D01*
X91069982Y-69102414D01*
X91044865Y-69099500D01*
X91044859Y-69099500D01*
X90375613Y-69099500D01*
X90301113Y-69079538D01*
X90246575Y-69025000D01*
X90226613Y-68950500D01*
X90236295Y-68897666D01*
X90285140Y-68768872D01*
X90305645Y-68600000D01*
X90285140Y-68431128D01*
X90277081Y-68409879D01*
X90224818Y-68272070D01*
X90200784Y-68237251D01*
X90128183Y-68132071D01*
X90128180Y-68132068D01*
X90128179Y-68132067D01*
X90000853Y-68019267D01*
X90000854Y-68019267D01*
X89850224Y-67940209D01*
X89685056Y-67899500D01*
X89514944Y-67899500D01*
X89349775Y-67940209D01*
X89224513Y-68005953D01*
X89149270Y-68022899D01*
X89075634Y-67999953D01*
X89043735Y-67972819D01*
X89040340Y-67968987D01*
X89040338Y-67968983D01*
X89040334Y-67968979D01*
X89040331Y-67968976D01*
X88913008Y-67856179D01*
X88913009Y-67856179D01*
X88762379Y-67777121D01*
X88597211Y-67736412D01*
X88427099Y-67736412D01*
X88261930Y-67777121D01*
X88111300Y-67856179D01*
X87983975Y-67968979D01*
X87983972Y-67968983D01*
X87887336Y-68108982D01*
X87827015Y-68268037D01*
X87822484Y-68305358D01*
X87806770Y-68434776D01*
X87806510Y-68436915D01*
X87806510Y-68437177D01*
X87806451Y-68437393D01*
X87805424Y-68445859D01*
X87804222Y-68445713D01*
X87786548Y-68511677D01*
X87762337Y-68539809D01*
X87763624Y-68541003D01*
X87756030Y-68549186D01*
X87724088Y-68596036D01*
X87720866Y-68600576D01*
X87687206Y-68646184D01*
X87683221Y-68653724D01*
X87679527Y-68661395D01*
X87662813Y-68715581D01*
X87661072Y-68720872D01*
X87642354Y-68774364D01*
X87640768Y-68782747D01*
X87639500Y-68791166D01*
X87639500Y-68847848D01*
X87639396Y-68853418D01*
X87637767Y-68896969D01*
X87637276Y-68910081D01*
X87638526Y-68921176D01*
X87637302Y-68921313D01*
X87639500Y-68937994D01*
X87639500Y-69009967D01*
X87619538Y-69084467D01*
X87565000Y-69139005D01*
X87550684Y-69146271D01*
X87547235Y-69147793D01*
X87539201Y-69153297D01*
X87466456Y-69178928D01*
X87390642Y-69164753D01*
X87370799Y-69153297D01*
X87362764Y-69147793D01*
X87259994Y-69102416D01*
X87259991Y-69102415D01*
X87259982Y-69102414D01*
X87234865Y-69099500D01*
X87234859Y-69099500D01*
X86599500Y-69099500D01*
X86525000Y-69079538D01*
X86470462Y-69025000D01*
X86450500Y-68950500D01*
X86450500Y-68861936D01*
X86450587Y-68856849D01*
X86452762Y-68793174D01*
X86443340Y-68754512D01*
X86440490Y-68739519D01*
X86439993Y-68735902D01*
X86435070Y-68700080D01*
X86428772Y-68685581D01*
X86420672Y-68661493D01*
X86420648Y-68661394D01*
X86416933Y-68646148D01*
X86397424Y-68611451D01*
X86390641Y-68597795D01*
X86374780Y-68561280D01*
X86364805Y-68549020D01*
X86350510Y-68528016D01*
X86342765Y-68514241D01*
X86314610Y-68486086D01*
X86304408Y-68474782D01*
X86279278Y-68443892D01*
X86279277Y-68443891D01*
X86279276Y-68443890D01*
X86266364Y-68434776D01*
X86246931Y-68418407D01*
X85938839Y-68110315D01*
X85900275Y-68043520D01*
X85896285Y-68022922D01*
X85885140Y-67931128D01*
X85824818Y-67772070D01*
X85728183Y-67632071D01*
X85728180Y-67632068D01*
X85728179Y-67632067D01*
X85600853Y-67519267D01*
X85600854Y-67519267D01*
X85450224Y-67440209D01*
X85285056Y-67399500D01*
X85114944Y-67399500D01*
X84949775Y-67440209D01*
X84799145Y-67519267D01*
X84671820Y-67632067D01*
X84671817Y-67632071D01*
X84575181Y-67772070D01*
X84514860Y-67931125D01*
X84494355Y-68100000D01*
X84514860Y-68268874D01*
X84575181Y-68427929D01*
X84605113Y-68471293D01*
X84671817Y-68567929D01*
X84671819Y-68567930D01*
X84671820Y-68567932D01*
X84691242Y-68585138D01*
X84795207Y-68677243D01*
X84799146Y-68680732D01*
X84799148Y-68680734D01*
X84949775Y-68759790D01*
X85017591Y-68776505D01*
X85085146Y-68813714D01*
X85087290Y-68815815D01*
X85203574Y-68932099D01*
X85305859Y-69034383D01*
X85344423Y-69101178D01*
X85349500Y-69139742D01*
X85349500Y-72338062D01*
X85349413Y-72343149D01*
X85347237Y-72406826D01*
X85356662Y-72445499D01*
X85359510Y-72460486D01*
X85364930Y-72499919D01*
X85371226Y-72514414D01*
X85379324Y-72538495D01*
X85383065Y-72553846D01*
X85383067Y-72553852D01*
X85398550Y-72581390D01*
X85402573Y-72588544D01*
X85409356Y-72602202D01*
X85425217Y-72638714D01*
X85425221Y-72638721D01*
X85435191Y-72650976D01*
X85449484Y-72671977D01*
X85457233Y-72685758D01*
X85485381Y-72713906D01*
X85495596Y-72725224D01*
X85520722Y-72756108D01*
X85533638Y-72765225D01*
X85553064Y-72781589D01*
X85752284Y-72980808D01*
X85755819Y-72984466D01*
X85799320Y-73031044D01*
X85833332Y-73051727D01*
X85845948Y-73060314D01*
X85877656Y-73084360D01*
X85877657Y-73084360D01*
X85877658Y-73084361D01*
X85892361Y-73090159D01*
X85915113Y-73101459D01*
X85928618Y-73109672D01*
X85966950Y-73120411D01*
X85981400Y-73125271D01*
X86018435Y-73139876D01*
X86018438Y-73139876D01*
X86028334Y-73142288D01*
X86027862Y-73144223D01*
X86087795Y-73167067D01*
X86136475Y-73226892D01*
X86149500Y-73287817D01*
X86149500Y-75744866D01*
X86152414Y-75769989D01*
X86152415Y-75769992D01*
X86197793Y-75872764D01*
X86197794Y-75872765D01*
X86277235Y-75952206D01*
X86380009Y-75997585D01*
X86405135Y-76000500D01*
X87234864Y-76000499D01*
X87234866Y-76000499D01*
X87247427Y-75999042D01*
X87259991Y-75997585D01*
X87362765Y-75952206D01*
X87362769Y-75952201D01*
X87370795Y-75946705D01*
X87443538Y-75921071D01*
X87519353Y-75935244D01*
X87539205Y-75946705D01*
X87547232Y-75952203D01*
X87547235Y-75952206D01*
X87650009Y-75997585D01*
X87675135Y-76000500D01*
X88504864Y-76000499D01*
X88504869Y-76000498D01*
X88506917Y-76000380D01*
X88507492Y-76000499D01*
X88509166Y-76000499D01*
X88509166Y-76000845D01*
X88582444Y-76016010D01*
X88624075Y-76050862D01*
X88625280Y-76049658D01*
X88632810Y-76057188D01*
X88747905Y-76143349D01*
X88747915Y-76143354D01*
X88882623Y-76193598D01*
X88882621Y-76193598D01*
X88942157Y-76199998D01*
X88942177Y-76200000D01*
X89110000Y-76200000D01*
X89110000Y-74750000D01*
X89610000Y-74750000D01*
X89610000Y-76200000D01*
X89777823Y-76200000D01*
X89777842Y-76199998D01*
X89837377Y-76193598D01*
X89942930Y-76154229D01*
X90019708Y-76146897D01*
X90047070Y-76154229D01*
X90152623Y-76193598D01*
X90152621Y-76193598D01*
X90212157Y-76199998D01*
X90212177Y-76200000D01*
X90380000Y-76200000D01*
X90380000Y-74750000D01*
X89610000Y-74750000D01*
X89110000Y-74750000D01*
X89110000Y-72800000D01*
X89610000Y-72800000D01*
X89610000Y-74250000D01*
X90380000Y-74250000D01*
X90380000Y-72800000D01*
X90880000Y-72800000D01*
X90880000Y-76200000D01*
X91047823Y-76200000D01*
X91047842Y-76199998D01*
X91107377Y-76193598D01*
X91242084Y-76143354D01*
X91242094Y-76143349D01*
X91357187Y-76057190D01*
X91364724Y-76049654D01*
X91366237Y-76051167D01*
X91415808Y-76012172D01*
X91480832Y-76000780D01*
X91480832Y-76000500D01*
X91482433Y-76000499D01*
X91483107Y-76000382D01*
X91485111Y-76000497D01*
X91485135Y-76000500D01*
X92314864Y-76000499D01*
X92314869Y-76000498D01*
X92316917Y-76000380D01*
X92317492Y-76000499D01*
X92319166Y-76000499D01*
X92319166Y-76000845D01*
X92392444Y-76016010D01*
X92434075Y-76050862D01*
X92435280Y-76049658D01*
X92442810Y-76057188D01*
X92557905Y-76143349D01*
X92557915Y-76143354D01*
X92692623Y-76193598D01*
X92692621Y-76193598D01*
X92752157Y-76199998D01*
X92752177Y-76200000D01*
X92920000Y-76200000D01*
X92920000Y-72800000D01*
X93420000Y-72800000D01*
X93420000Y-76200000D01*
X93587823Y-76200000D01*
X93587842Y-76199998D01*
X93647378Y-76193598D01*
X93656448Y-76191455D01*
X93657256Y-76194875D01*
X93716068Y-76189195D01*
X93786261Y-76221159D01*
X93831069Y-76283936D01*
X93838484Y-76360707D01*
X93830838Y-76388993D01*
X93814861Y-76431121D01*
X93794355Y-76600000D01*
X93814860Y-76768874D01*
X93875181Y-76927929D01*
X93875182Y-76927930D01*
X93971817Y-77067929D01*
X93971819Y-77067930D01*
X93971820Y-77067932D01*
X94099146Y-77180732D01*
X94099148Y-77180734D01*
X94249775Y-77259790D01*
X94414944Y-77300500D01*
X94585056Y-77300500D01*
X94750225Y-77259790D01*
X94900852Y-77180734D01*
X95028183Y-77067929D01*
X95124818Y-76927930D01*
X95185140Y-76768872D01*
X95205645Y-76600000D01*
X95185140Y-76431128D01*
X95169160Y-76388993D01*
X95124818Y-76272070D01*
X95075071Y-76200000D01*
X95028183Y-76132071D01*
X95028180Y-76132068D01*
X95028179Y-76132067D01*
X95027206Y-76131205D01*
X95026590Y-76130273D01*
X95022203Y-76125321D01*
X95022905Y-76124698D01*
X94984679Y-76066860D01*
X94980022Y-75989873D01*
X95014483Y-75920872D01*
X95020636Y-75914334D01*
X95062206Y-75872765D01*
X95107585Y-75769991D01*
X95110500Y-75744865D01*
X95110499Y-73255136D01*
X95110029Y-73251086D01*
X95107585Y-73230010D01*
X95107584Y-73230007D01*
X95099789Y-73212354D01*
X95062206Y-73127235D01*
X94982765Y-73047794D01*
X94982764Y-73047793D01*
X94879994Y-73002416D01*
X94879991Y-73002415D01*
X94854865Y-72999500D01*
X94854859Y-72999500D01*
X94025124Y-72999500D01*
X94023060Y-72999620D01*
X94022485Y-72999500D01*
X94020834Y-72999501D01*
X94020834Y-72999158D01*
X93947535Y-72983978D01*
X93905929Y-72949140D01*
X93904724Y-72950346D01*
X93897187Y-72942809D01*
X93782094Y-72856650D01*
X93782084Y-72856645D01*
X93647376Y-72806401D01*
X93647378Y-72806401D01*
X93587842Y-72800001D01*
X93587823Y-72800000D01*
X93420000Y-72800000D01*
X92920000Y-72800000D01*
X92752177Y-72800000D01*
X92752157Y-72800001D01*
X92692622Y-72806401D01*
X92557915Y-72856645D01*
X92557908Y-72856648D01*
X92442804Y-72942816D01*
X92435273Y-72950348D01*
X92433762Y-72948837D01*
X92384161Y-72987840D01*
X92319168Y-72999224D01*
X92319168Y-72999500D01*
X92317593Y-72999500D01*
X92316914Y-72999619D01*
X92314873Y-72999501D01*
X92314865Y-72999500D01*
X92314856Y-72999500D01*
X91485124Y-72999500D01*
X91483060Y-72999620D01*
X91482485Y-72999500D01*
X91480834Y-72999501D01*
X91480834Y-72999158D01*
X91407535Y-72983978D01*
X91365929Y-72949140D01*
X91364724Y-72950346D01*
X91357187Y-72942809D01*
X91242094Y-72856650D01*
X91242084Y-72856645D01*
X91107376Y-72806401D01*
X91107378Y-72806401D01*
X91047842Y-72800001D01*
X91047823Y-72800000D01*
X90880000Y-72800000D01*
X90380000Y-72800000D01*
X90212177Y-72800000D01*
X90212157Y-72800001D01*
X90152624Y-72806401D01*
X90047069Y-72845771D01*
X89970290Y-72853102D01*
X89942931Y-72845771D01*
X89837375Y-72806401D01*
X89777842Y-72800001D01*
X89777823Y-72800000D01*
X89610000Y-72800000D01*
X89110000Y-72800000D01*
X88942177Y-72800000D01*
X88942157Y-72800001D01*
X88882622Y-72806401D01*
X88737926Y-72860371D01*
X88736702Y-72857089D01*
X88680425Y-72870717D01*
X88606430Y-72848957D01*
X88568449Y-72815791D01*
X88564780Y-72811282D01*
X88564780Y-72811280D01*
X88554805Y-72799020D01*
X88540512Y-72778018D01*
X88532765Y-72764240D01*
X88504616Y-72736091D01*
X88494394Y-72724764D01*
X88469278Y-72693892D01*
X88456365Y-72684777D01*
X88436934Y-72668409D01*
X88123383Y-72354858D01*
X88084819Y-72288063D01*
X88084819Y-72210935D01*
X88123383Y-72144140D01*
X88190178Y-72105576D01*
X88228742Y-72100499D01*
X88504867Y-72100499D01*
X88519940Y-72098750D01*
X88529991Y-72097585D01*
X88632765Y-72052206D01*
X88632769Y-72052201D01*
X88640795Y-72046705D01*
X88713538Y-72021071D01*
X88789353Y-72035244D01*
X88809205Y-72046705D01*
X88817232Y-72052203D01*
X88817235Y-72052206D01*
X88920009Y-72097585D01*
X88945135Y-72100500D01*
X89774864Y-72100499D01*
X89774866Y-72100499D01*
X89787427Y-72099042D01*
X89799991Y-72097585D01*
X89902765Y-72052206D01*
X89902769Y-72052201D01*
X89910795Y-72046705D01*
X89983538Y-72021071D01*
X90059353Y-72035244D01*
X90079205Y-72046705D01*
X90087232Y-72052203D01*
X90087235Y-72052206D01*
X90190009Y-72097585D01*
X90215135Y-72100500D01*
X91044864Y-72100499D01*
X91044866Y-72100499D01*
X91057427Y-72099042D01*
X91069991Y-72097585D01*
X91172765Y-72052206D01*
X91172769Y-72052201D01*
X91180795Y-72046705D01*
X91253538Y-72021071D01*
X91329353Y-72035244D01*
X91349205Y-72046705D01*
X91357232Y-72052203D01*
X91357235Y-72052206D01*
X91460009Y-72097585D01*
X91485135Y-72100500D01*
X92314864Y-72100499D01*
X92314866Y-72100499D01*
X92327427Y-72099042D01*
X92339991Y-72097585D01*
X92442765Y-72052206D01*
X92442769Y-72052201D01*
X92450795Y-72046705D01*
X92523538Y-72021071D01*
X92599353Y-72035244D01*
X92619205Y-72046705D01*
X92627232Y-72052203D01*
X92627235Y-72052206D01*
X92730009Y-72097585D01*
X92755135Y-72100500D01*
X93584864Y-72100499D01*
X93584866Y-72100499D01*
X93597427Y-72099042D01*
X93609991Y-72097585D01*
X93712765Y-72052206D01*
X93712769Y-72052201D01*
X93720795Y-72046705D01*
X93793538Y-72021071D01*
X93869353Y-72035244D01*
X93889205Y-72046705D01*
X93897232Y-72052203D01*
X93897235Y-72052206D01*
X94000009Y-72097585D01*
X94025135Y-72100500D01*
X94854864Y-72100499D01*
X94854866Y-72100499D01*
X94867427Y-72099042D01*
X94879991Y-72097585D01*
X94982765Y-72052206D01*
X95062206Y-71972765D01*
X95107585Y-71869991D01*
X95110500Y-71844865D01*
X95110499Y-69355136D01*
X95107585Y-69330009D01*
X95087402Y-69284298D01*
X95075571Y-69208083D01*
X95103433Y-69136163D01*
X95118348Y-69118755D01*
X95242963Y-68994141D01*
X95309758Y-68955577D01*
X95348321Y-68950500D01*
X97166334Y-68950500D01*
X97183014Y-68951436D01*
X97217035Y-68955270D01*
X97272797Y-68944718D01*
X97278202Y-68943800D01*
X97334287Y-68935348D01*
X97334294Y-68935344D01*
X97342461Y-68932825D01*
X97350468Y-68930024D01*
X97350468Y-68930023D01*
X97350472Y-68930023D01*
X97400642Y-68903505D01*
X97405548Y-68901029D01*
X97456642Y-68876425D01*
X97456644Y-68876422D01*
X97463678Y-68871628D01*
X97470530Y-68866569D01*
X97470538Y-68866566D01*
X97510659Y-68826442D01*
X97514625Y-68822623D01*
X97556194Y-68784055D01*
X97556196Y-68784050D01*
X97563154Y-68775327D01*
X97564150Y-68776121D01*
X97574358Y-68762744D01*
X101319754Y-65017347D01*
X101332193Y-65006232D01*
X101358970Y-64984879D01*
X101390939Y-64937988D01*
X101394108Y-64933521D01*
X101427793Y-64887882D01*
X101427794Y-64887880D01*
X101431774Y-64880350D01*
X101435467Y-64872680D01*
X101435472Y-64872673D01*
X101447995Y-64832071D01*
X101452185Y-64818488D01*
X101453928Y-64813189D01*
X101472646Y-64759699D01*
X101472646Y-64759696D01*
X101474227Y-64751339D01*
X101475500Y-64742899D01*
X101475500Y-64686217D01*
X101475604Y-64680647D01*
X101476237Y-64663720D01*
X101477724Y-64623990D01*
X101477722Y-64623985D01*
X101476474Y-64612897D01*
X101477682Y-64612760D01*
X101475500Y-64596076D01*
X101475500Y-63674500D01*
X101495462Y-63600000D01*
X101550000Y-63545462D01*
X101624500Y-63525500D01*
X101683489Y-63525500D01*
X101689319Y-63525041D01*
X101689518Y-63527574D01*
X101754661Y-63534312D01*
X101817134Y-63579544D01*
X101848622Y-63649951D01*
X101848663Y-63685579D01*
X101849959Y-63685681D01*
X101849500Y-63691510D01*
X101849500Y-63691512D01*
X101849500Y-65008488D01*
X101857656Y-65059982D01*
X101865281Y-65108127D01*
X101877001Y-65131128D01*
X101918409Y-65212396D01*
X101931796Y-65238668D01*
X101928556Y-65240318D01*
X101948684Y-65292752D01*
X101949500Y-65308328D01*
X101949500Y-67851678D01*
X101929538Y-67926178D01*
X101905859Y-67957037D01*
X101205253Y-68657642D01*
X101192797Y-68668773D01*
X101166030Y-68690119D01*
X101134088Y-68736969D01*
X101130866Y-68741509D01*
X101097206Y-68787117D01*
X101093221Y-68794657D01*
X101089527Y-68802328D01*
X101072813Y-68856514D01*
X101071072Y-68861805D01*
X101052354Y-68915297D01*
X101050768Y-68923680D01*
X101049500Y-68932099D01*
X101049500Y-68988781D01*
X101049396Y-68994351D01*
X101047276Y-69051014D01*
X101048526Y-69062109D01*
X101047302Y-69062246D01*
X101049500Y-69078927D01*
X101049500Y-69666333D01*
X101048563Y-69683015D01*
X101044730Y-69717031D01*
X101044730Y-69717035D01*
X101055266Y-69772721D01*
X101056198Y-69778209D01*
X101064651Y-69834286D01*
X101067169Y-69842448D01*
X101069976Y-69850472D01*
X101096474Y-69900608D01*
X101098985Y-69905582D01*
X101123572Y-69956637D01*
X101128384Y-69963696D01*
X101133434Y-69970538D01*
X101173518Y-70010622D01*
X101177383Y-70014635D01*
X101215942Y-70056192D01*
X101224675Y-70063156D01*
X101223907Y-70064118D01*
X101237257Y-70074361D01*
X101457640Y-70294743D01*
X101468773Y-70307201D01*
X101490121Y-70333970D01*
X101536985Y-70365921D01*
X101541498Y-70369124D01*
X101549460Y-70375000D01*
X101587118Y-70402793D01*
X101587120Y-70402794D01*
X101594678Y-70406789D01*
X101602322Y-70410470D01*
X101602325Y-70410471D01*
X101602327Y-70410472D01*
X101656542Y-70427194D01*
X101661778Y-70428917D01*
X101715301Y-70447646D01*
X101723685Y-70449232D01*
X101732096Y-70450500D01*
X101732098Y-70450500D01*
X101774485Y-70450500D01*
X101848985Y-70470462D01*
X101862962Y-70479613D01*
X101864317Y-70480613D01*
X101912407Y-70540914D01*
X101923903Y-70617180D01*
X101895727Y-70688977D01*
X101835426Y-70737067D01*
X101775840Y-70749500D01*
X101591083Y-70749500D01*
X101516583Y-70729538D01*
X101506437Y-70723122D01*
X101500849Y-70719264D01*
X101350224Y-70640209D01*
X101185056Y-70599500D01*
X101014944Y-70599500D01*
X100849775Y-70640209D01*
X100699145Y-70719267D01*
X100571820Y-70832067D01*
X100571817Y-70832071D01*
X100475181Y-70972070D01*
X100414860Y-71131125D01*
X100394355Y-71300000D01*
X100414860Y-71468874D01*
X100475181Y-71627929D01*
X100475182Y-71627930D01*
X100571817Y-71767929D01*
X100571819Y-71767930D01*
X100571820Y-71767932D01*
X100699146Y-71880732D01*
X100699148Y-71880734D01*
X100849775Y-71959790D01*
X101014944Y-72000500D01*
X101185056Y-72000500D01*
X101350225Y-71959790D01*
X101362201Y-71953504D01*
X101437441Y-71936557D01*
X101511078Y-71959500D01*
X101563377Y-72016188D01*
X101580325Y-72091431D01*
X101574530Y-72127005D01*
X101527899Y-72287510D01*
X101527703Y-72289999D01*
X101527704Y-72290000D01*
X103101000Y-72290000D01*
X103175500Y-72309962D01*
X103230038Y-72364500D01*
X103250000Y-72439000D01*
X103250000Y-72641000D01*
X103230038Y-72715500D01*
X103175500Y-72770038D01*
X103101000Y-72790000D01*
X101527704Y-72790000D01*
X101527899Y-72792488D01*
X101573718Y-72950196D01*
X101573718Y-72950197D01*
X101657316Y-73091554D01*
X101657318Y-73091557D01*
X101780073Y-73214312D01*
X101778378Y-73216006D01*
X101816711Y-73266497D01*
X101826387Y-73343016D01*
X101798649Y-73411289D01*
X101772207Y-73447117D01*
X101727353Y-73575304D01*
X101724500Y-73605724D01*
X101724500Y-74014275D01*
X101727353Y-74044695D01*
X101772207Y-74172883D01*
X101852848Y-74282148D01*
X101852851Y-74282151D01*
X101962116Y-74362792D01*
X101962117Y-74362792D01*
X101962118Y-74362793D01*
X102090301Y-74407646D01*
X102120734Y-74410500D01*
X102120741Y-74410500D01*
X103879259Y-74410500D01*
X103879266Y-74410500D01*
X103909699Y-74407646D01*
X104037882Y-74362793D01*
X104081761Y-74330409D01*
X104137036Y-74289615D01*
X104208833Y-74261437D01*
X104225515Y-74260500D01*
X104561678Y-74260500D01*
X104636178Y-74280462D01*
X104667037Y-74304141D01*
X105757644Y-75394748D01*
X105768777Y-75407206D01*
X105790120Y-75433970D01*
X105836943Y-75465893D01*
X105841485Y-75469115D01*
X105866610Y-75487657D01*
X105887117Y-75502792D01*
X105887118Y-75502792D01*
X105887119Y-75502793D01*
X105894679Y-75506788D01*
X105902324Y-75510470D01*
X105902327Y-75510472D01*
X105956521Y-75527188D01*
X105961796Y-75528923D01*
X106015300Y-75547646D01*
X106015301Y-75547646D01*
X106023655Y-75549227D01*
X106032095Y-75550499D01*
X106032098Y-75550500D01*
X106088782Y-75550500D01*
X106094352Y-75550604D01*
X106151010Y-75552724D01*
X106151014Y-75552723D01*
X106162109Y-75551474D01*
X106162246Y-75552697D01*
X106178927Y-75550500D01*
X119166334Y-75550500D01*
X119183014Y-75551436D01*
X119217035Y-75555270D01*
X119272797Y-75544718D01*
X119278202Y-75543800D01*
X119334287Y-75535348D01*
X119334294Y-75535344D01*
X119342461Y-75532825D01*
X119350468Y-75530024D01*
X119350468Y-75530023D01*
X119350472Y-75530023D01*
X119400642Y-75503505D01*
X119405548Y-75501029D01*
X119456642Y-75476425D01*
X119456644Y-75476422D01*
X119463695Y-75471616D01*
X119470535Y-75466568D01*
X119470535Y-75466567D01*
X119470538Y-75466566D01*
X119510661Y-75426441D01*
X119514593Y-75422653D01*
X119556194Y-75384055D01*
X119556195Y-75384052D01*
X119556197Y-75384051D01*
X119563157Y-75375324D01*
X119564142Y-75376109D01*
X119574361Y-75362741D01*
X130294759Y-64642343D01*
X130307198Y-64631228D01*
X130333970Y-64609879D01*
X130365924Y-64563009D01*
X130369124Y-64558501D01*
X130376552Y-64548436D01*
X130402792Y-64512883D01*
X130402793Y-64512881D01*
X130406784Y-64505329D01*
X130410468Y-64497677D01*
X130410472Y-64497673D01*
X130427190Y-64443470D01*
X130428932Y-64438179D01*
X130431155Y-64431826D01*
X130447646Y-64384700D01*
X130447646Y-64384695D01*
X130449226Y-64376346D01*
X130450500Y-64367900D01*
X130450500Y-64311217D01*
X130450604Y-64305647D01*
X130450640Y-64304688D01*
X130452724Y-64248990D01*
X130452723Y-64248985D01*
X130451474Y-64237891D01*
X130452682Y-64237754D01*
X130450500Y-64221072D01*
X130450500Y-62799500D01*
X130470462Y-62725000D01*
X130525000Y-62670462D01*
X130599500Y-62650500D01*
X130793101Y-62650500D01*
X130793102Y-62650500D01*
X130881564Y-62639877D01*
X131022342Y-62584361D01*
X131142922Y-62492922D01*
X131234361Y-62372342D01*
X131289877Y-62231564D01*
X131300500Y-62143102D01*
X131300500Y-60856898D01*
X131289877Y-60768436D01*
X131234361Y-60627658D01*
X131142922Y-60507078D01*
X131142920Y-60507076D01*
X131066335Y-60449000D01*
X131022342Y-60415639D01*
X131022339Y-60415638D01*
X131022338Y-60415637D01*
X130934469Y-60380986D01*
X130872486Y-60335085D01*
X130841758Y-60264342D01*
X130850519Y-60187714D01*
X130896420Y-60125731D01*
X130903667Y-60120321D01*
X131021080Y-60038107D01*
X131188111Y-59871076D01*
X131323593Y-59677588D01*
X131323599Y-59677579D01*
X131423430Y-59463491D01*
X131423431Y-59463489D01*
X131480636Y-59250000D01*
X130433686Y-59250000D01*
X130459493Y-59209844D01*
X130500000Y-59071889D01*
X130500000Y-58928111D01*
X130459493Y-58790156D01*
X130433686Y-58750000D01*
X131480636Y-58750000D01*
X131480635Y-58749999D01*
X131423431Y-58536512D01*
X131323597Y-58322419D01*
X131188108Y-58128920D01*
X131021079Y-57961891D01*
X130827580Y-57826402D01*
X130613487Y-57726568D01*
X130385324Y-57665431D01*
X130385318Y-57665430D01*
X130250000Y-57653591D01*
X130250000Y-58564498D01*
X130142315Y-58515320D01*
X130035763Y-58500000D01*
X129964237Y-58500000D01*
X129857685Y-58515320D01*
X129750000Y-58564498D01*
X129750000Y-57653591D01*
X129614681Y-57665430D01*
X129614675Y-57665431D01*
X129386512Y-57726568D01*
X129172419Y-57826402D01*
X128978920Y-57961891D01*
X128811888Y-58128923D01*
X128676406Y-58322411D01*
X128676400Y-58322420D01*
X128576569Y-58536508D01*
X128576568Y-58536510D01*
X128519364Y-58749999D01*
X128519364Y-58750000D01*
X129566314Y-58750000D01*
X129540507Y-58790156D01*
X129500000Y-58928111D01*
X129500000Y-59071889D01*
X129540507Y-59209844D01*
X129566314Y-59250000D01*
X128519364Y-59250000D01*
X128576568Y-59463487D01*
X128676402Y-59677580D01*
X128811891Y-59871079D01*
X128978920Y-60038108D01*
X129096332Y-60120321D01*
X129145909Y-60179405D01*
X129159302Y-60255361D01*
X129132923Y-60327838D01*
X129073839Y-60377415D01*
X129065531Y-60380986D01*
X128977658Y-60415638D01*
X128977658Y-60415639D01*
X128857079Y-60507076D01*
X128857076Y-60507079D01*
X128765639Y-60627658D01*
X128765638Y-60627658D01*
X128710122Y-60768436D01*
X128699500Y-60856894D01*
X128699500Y-62143105D01*
X128710122Y-62231563D01*
X128765638Y-62372341D01*
X128847835Y-62480734D01*
X128857078Y-62492922D01*
X128977658Y-62584361D01*
X129118436Y-62639877D01*
X129206898Y-62650500D01*
X129400500Y-62650500D01*
X129475000Y-62670462D01*
X129529538Y-62725000D01*
X129549500Y-62799500D01*
X129549500Y-64051679D01*
X129529538Y-64126179D01*
X129505859Y-64157038D01*
X119057038Y-74605859D01*
X118990243Y-74644423D01*
X118951679Y-74649500D01*
X113306307Y-74649500D01*
X113231807Y-74629538D01*
X113177269Y-74575000D01*
X113157307Y-74500500D01*
X113177269Y-74426000D01*
X113179490Y-74422279D01*
X113196857Y-74394121D01*
X113252005Y-74227697D01*
X113252007Y-74227688D01*
X113262499Y-74124989D01*
X113262500Y-74124979D01*
X113262500Y-73850000D01*
X112074000Y-73850000D01*
X111999500Y-73830038D01*
X111944962Y-73775500D01*
X111925000Y-73701000D01*
X111925000Y-71850000D01*
X112425000Y-71850000D01*
X112425000Y-73350000D01*
X113262499Y-73350000D01*
X113262499Y-73075026D01*
X113252005Y-72972303D01*
X113196857Y-72805878D01*
X113118118Y-72678221D01*
X113095998Y-72604333D01*
X113113785Y-72529284D01*
X113118118Y-72521779D01*
X113196857Y-72394121D01*
X113252005Y-72227697D01*
X113252007Y-72227688D01*
X113262499Y-72124989D01*
X113262500Y-72124979D01*
X113262500Y-71850000D01*
X112425000Y-71850000D01*
X111925000Y-71850000D01*
X111925000Y-70375000D01*
X112425000Y-70375000D01*
X112425000Y-71350000D01*
X113262499Y-71350000D01*
X113262499Y-71075026D01*
X113252005Y-70972303D01*
X113196857Y-70805878D01*
X113104819Y-70656659D01*
X112980840Y-70532680D01*
X112831621Y-70440642D01*
X112665197Y-70385494D01*
X112665188Y-70385492D01*
X112562489Y-70375000D01*
X112425000Y-70375000D01*
X111925000Y-70375000D01*
X111787526Y-70375000D01*
X111684803Y-70385494D01*
X111518378Y-70440642D01*
X111369159Y-70532680D01*
X111245180Y-70656659D01*
X111148587Y-70813264D01*
X111145997Y-70811666D01*
X111106411Y-70858828D01*
X111033930Y-70885195D01*
X110957976Y-70871789D01*
X110902245Y-70826791D01*
X110890775Y-70811666D01*
X110843634Y-70749500D01*
X110830423Y-70732079D01*
X110830420Y-70732076D01*
X110751664Y-70672354D01*
X110709842Y-70640639D01*
X110709841Y-70640638D01*
X110569063Y-70585122D01*
X110480605Y-70574500D01*
X110480602Y-70574500D01*
X109719398Y-70574500D01*
X109719394Y-70574500D01*
X109630936Y-70585122D01*
X109490158Y-70640638D01*
X109490158Y-70640639D01*
X109369579Y-70732076D01*
X109369575Y-70732080D01*
X109326971Y-70788262D01*
X109266049Y-70835562D01*
X109189640Y-70846063D01*
X109118216Y-70816953D01*
X109102889Y-70803589D01*
X109097149Y-70797849D01*
X109046309Y-70760328D01*
X109038934Y-70754885D01*
X108990846Y-70694585D01*
X108979350Y-70618319D01*
X109007527Y-70546522D01*
X109038933Y-70515115D01*
X109097150Y-70472150D01*
X109177793Y-70362882D01*
X109222646Y-70234699D01*
X109225500Y-70204266D01*
X109225500Y-69795734D01*
X109222646Y-69765301D01*
X109177793Y-69637118D01*
X109160548Y-69613752D01*
X109097151Y-69527851D01*
X109097148Y-69527848D01*
X108987883Y-69447207D01*
X108928042Y-69426268D01*
X108859699Y-69402354D01*
X108859697Y-69402353D01*
X108859695Y-69402353D01*
X108829275Y-69399500D01*
X108829266Y-69399500D01*
X108549500Y-69399500D01*
X108475000Y-69379538D01*
X108420462Y-69325000D01*
X108400500Y-69250500D01*
X108400500Y-68783666D01*
X108401437Y-68766984D01*
X108401915Y-68762740D01*
X108405270Y-68732965D01*
X108394722Y-68677219D01*
X108393794Y-68671750D01*
X108385348Y-68615713D01*
X108385347Y-68615711D01*
X108385347Y-68615709D01*
X108382831Y-68607552D01*
X108380022Y-68599523D01*
X108353519Y-68549380D01*
X108351005Y-68544401D01*
X108348466Y-68539129D01*
X108326425Y-68493358D01*
X108326423Y-68493356D01*
X108321614Y-68486301D01*
X108316566Y-68479462D01*
X108276466Y-68439362D01*
X108272627Y-68435377D01*
X108234055Y-68393806D01*
X108234051Y-68393803D01*
X108225329Y-68386848D01*
X108226083Y-68385902D01*
X108212745Y-68375641D01*
X107162104Y-67325000D01*
X108775001Y-67325000D01*
X108775001Y-67462473D01*
X108785494Y-67565196D01*
X108840642Y-67731621D01*
X108932680Y-67880840D01*
X109056659Y-68004819D01*
X109205878Y-68096857D01*
X109372302Y-68152005D01*
X109372311Y-68152007D01*
X109475015Y-68162499D01*
X109750000Y-68162499D01*
X109750000Y-67325000D01*
X110250000Y-67325000D01*
X110250000Y-68162499D01*
X110524974Y-68162499D01*
X110627696Y-68152005D01*
X110794121Y-68096857D01*
X110950731Y-68000261D01*
X110952421Y-68003001D01*
X111008307Y-67978883D01*
X111084915Y-67987824D01*
X111135287Y-68020947D01*
X111156659Y-68042319D01*
X111305878Y-68134357D01*
X111472302Y-68189505D01*
X111472311Y-68189507D01*
X111575015Y-68199999D01*
X111850000Y-68199999D01*
X111850000Y-67362500D01*
X112350000Y-67362500D01*
X112350000Y-68199999D01*
X112624974Y-68199999D01*
X112727696Y-68189505D01*
X112894121Y-68134357D01*
X113043340Y-68042319D01*
X113167319Y-67918340D01*
X113259357Y-67769121D01*
X113314505Y-67602697D01*
X113314507Y-67602688D01*
X113324999Y-67499989D01*
X113325000Y-67499979D01*
X113325000Y-67362500D01*
X112350000Y-67362500D01*
X111850000Y-67362500D01*
X110931218Y-67362500D01*
X110856718Y-67342538D01*
X110833862Y-67325000D01*
X110250000Y-67325000D01*
X109750000Y-67325000D01*
X108775001Y-67325000D01*
X107162104Y-67325000D01*
X106094141Y-66257037D01*
X106055577Y-66190242D01*
X106050500Y-66151678D01*
X106050500Y-65544702D01*
X106070462Y-65470202D01*
X106125000Y-65415664D01*
X106199500Y-65395702D01*
X106222795Y-65397535D01*
X106241512Y-65400500D01*
X106241517Y-65400500D01*
X106558483Y-65400500D01*
X106558488Y-65400500D01*
X106658126Y-65384719D01*
X106732356Y-65346896D01*
X106807797Y-65330861D01*
X106867643Y-65346896D01*
X106941874Y-65384719D01*
X107041512Y-65400500D01*
X107041517Y-65400500D01*
X107354899Y-65400500D01*
X107429399Y-65420462D01*
X107460258Y-65444141D01*
X107488887Y-65472770D01*
X107488890Y-65472772D01*
X107624807Y-65553153D01*
X107749999Y-65589525D01*
X107750000Y-65589525D01*
X107750000Y-65020696D01*
X107750459Y-65009004D01*
X107750500Y-65008483D01*
X107750500Y-64249000D01*
X107770462Y-64174500D01*
X107825000Y-64119962D01*
X107899500Y-64100000D01*
X108101000Y-64100000D01*
X108175500Y-64119962D01*
X108230038Y-64174500D01*
X108250000Y-64249000D01*
X108250000Y-65589525D01*
X108375192Y-65553153D01*
X108511109Y-65472772D01*
X108511112Y-65472770D01*
X108622770Y-65361112D01*
X108622772Y-65361109D01*
X108697249Y-65235176D01*
X108752355Y-65181212D01*
X108827060Y-65162031D01*
X108901347Y-65182772D01*
X108955311Y-65237878D01*
X108974500Y-65311023D01*
X108974500Y-65380605D01*
X108985122Y-65469063D01*
X109040638Y-65609841D01*
X109113985Y-65706564D01*
X109132078Y-65730422D01*
X109226789Y-65802244D01*
X109226791Y-65802245D01*
X109274091Y-65863166D01*
X109284594Y-65939576D01*
X109255484Y-66011000D01*
X109211823Y-66046251D01*
X109213264Y-66048587D01*
X109056659Y-66145180D01*
X108932680Y-66269159D01*
X108840642Y-66418378D01*
X108785494Y-66584802D01*
X108785492Y-66584811D01*
X108775000Y-66687510D01*
X108775000Y-66825000D01*
X111168782Y-66825000D01*
X111243282Y-66844962D01*
X111266138Y-66862500D01*
X113324999Y-66862500D01*
X113324999Y-66725026D01*
X113314505Y-66622303D01*
X113259357Y-66455878D01*
X113167319Y-66306659D01*
X113043340Y-66182680D01*
X112886736Y-66086087D01*
X112888335Y-66083493D01*
X112841190Y-66043939D01*
X112814807Y-65971463D01*
X112828196Y-65895506D01*
X112873206Y-65839747D01*
X112967922Y-65767922D01*
X113059361Y-65647342D01*
X113114877Y-65506564D01*
X113125500Y-65418102D01*
X113125500Y-64656898D01*
X113114877Y-64568436D01*
X113059361Y-64427658D01*
X113044477Y-64408031D01*
X112967923Y-64307079D01*
X112967920Y-64307076D01*
X112891335Y-64249000D01*
X112847342Y-64215639D01*
X112847341Y-64215638D01*
X112706563Y-64160122D01*
X112618105Y-64149500D01*
X112618102Y-64149500D01*
X111581898Y-64149500D01*
X111581894Y-64149500D01*
X111493436Y-64160122D01*
X111352658Y-64215638D01*
X111352658Y-64215639D01*
X111232079Y-64307076D01*
X111232077Y-64307078D01*
X111182941Y-64371873D01*
X111122018Y-64419172D01*
X111045609Y-64429673D01*
X110974185Y-64400563D01*
X110945494Y-64371872D01*
X110867922Y-64269578D01*
X110867920Y-64269577D01*
X110867920Y-64269576D01*
X110796793Y-64215639D01*
X110747342Y-64178139D01*
X110747341Y-64178138D01*
X110606563Y-64122622D01*
X110518105Y-64112000D01*
X110518102Y-64112000D01*
X110074500Y-64112000D01*
X110000000Y-64092038D01*
X109945462Y-64037500D01*
X109925500Y-63963000D01*
X109925500Y-63669861D01*
X109945462Y-63595361D01*
X110000000Y-63540823D01*
X110051186Y-63522696D01*
X110133126Y-63509719D01*
X110253220Y-63448528D01*
X110348528Y-63353220D01*
X110409719Y-63233126D01*
X110425500Y-63133488D01*
X110425500Y-62816512D01*
X110422537Y-62797805D01*
X110430600Y-62721102D01*
X110475935Y-62658704D01*
X110546395Y-62627334D01*
X110569703Y-62625500D01*
X110916334Y-62625500D01*
X110933014Y-62626436D01*
X110967035Y-62630270D01*
X111022797Y-62619718D01*
X111028202Y-62618800D01*
X111084287Y-62610348D01*
X111084294Y-62610344D01*
X111092461Y-62607825D01*
X111100468Y-62605024D01*
X111100468Y-62605023D01*
X111100472Y-62605023D01*
X111150642Y-62578505D01*
X111155548Y-62576029D01*
X111206642Y-62551425D01*
X111206644Y-62551422D01*
X111213695Y-62546616D01*
X111220532Y-62541569D01*
X111220538Y-62541566D01*
X111242961Y-62519142D01*
X111309755Y-62480578D01*
X111348321Y-62475500D01*
X111754617Y-62475500D01*
X111754618Y-62475500D01*
X111841077Y-62465117D01*
X111978658Y-62410862D01*
X112096500Y-62321500D01*
X112181276Y-62209704D01*
X112242197Y-62162405D01*
X112318606Y-62151902D01*
X112390030Y-62181011D01*
X112418722Y-62209703D01*
X112442905Y-62241593D01*
X112503499Y-62321499D01*
X112503501Y-62321501D01*
X112526037Y-62338590D01*
X112621342Y-62410862D01*
X112758923Y-62465117D01*
X112845382Y-62475500D01*
X112845383Y-62475500D01*
X113504617Y-62475500D01*
X113504618Y-62475500D01*
X113591077Y-62465117D01*
X113728658Y-62410862D01*
X113846500Y-62321500D01*
X113935862Y-62203658D01*
X113990117Y-62066077D01*
X114000500Y-61979618D01*
X114000500Y-61420382D01*
X113990117Y-61333923D01*
X113935862Y-61196342D01*
X113931276Y-61190294D01*
X113840342Y-61070379D01*
X113843418Y-61068045D01*
X113814926Y-61018695D01*
X113814926Y-60941567D01*
X113853490Y-60874772D01*
X113904186Y-60841520D01*
X113922342Y-60834361D01*
X114042922Y-60742922D01*
X114134361Y-60622342D01*
X114189877Y-60481564D01*
X114200500Y-60393102D01*
X114200500Y-59406898D01*
X114189877Y-59318436D01*
X114134361Y-59177658D01*
X114115432Y-59152696D01*
X114042923Y-59057079D01*
X114042920Y-59057076D01*
X113958321Y-58992923D01*
X113922342Y-58965639D01*
X113922341Y-58965638D01*
X113781563Y-58910122D01*
X113693105Y-58899500D01*
X113693102Y-58899500D01*
X112906898Y-58899500D01*
X112906894Y-58899500D01*
X112818436Y-58910122D01*
X112677658Y-58965638D01*
X112677658Y-58965639D01*
X112557079Y-59057076D01*
X112540543Y-59078883D01*
X112479621Y-59126182D01*
X112403211Y-59136685D01*
X112331787Y-59107575D01*
X112295002Y-59067072D01*
X112242319Y-58981659D01*
X112118340Y-58857680D01*
X111969121Y-58765642D01*
X111802697Y-58710494D01*
X111802690Y-58710492D01*
X111757748Y-58705901D01*
X111685663Y-58678470D01*
X111636951Y-58618672D01*
X111624665Y-58542528D01*
X111633576Y-58504837D01*
X111685138Y-58368878D01*
X111685138Y-58368876D01*
X111685140Y-58368872D01*
X111705645Y-58200000D01*
X111685140Y-58031128D01*
X111679598Y-58016516D01*
X111624818Y-57872070D01*
X111528183Y-57732071D01*
X111528180Y-57732068D01*
X111528179Y-57732067D01*
X111398556Y-57617231D01*
X111356029Y-57552886D01*
X111351372Y-57475899D01*
X111385833Y-57406898D01*
X111398546Y-57394184D01*
X111428183Y-57367929D01*
X111524818Y-57227930D01*
X111585140Y-57068872D01*
X111605645Y-56900000D01*
X111585140Y-56731128D01*
X111559842Y-56664423D01*
X111524818Y-56572070D01*
X111512239Y-56553846D01*
X111428183Y-56432071D01*
X111428180Y-56432068D01*
X111428179Y-56432067D01*
X111300853Y-56319267D01*
X111300854Y-56319267D01*
X111150224Y-56240209D01*
X110985056Y-56199500D01*
X110814944Y-56199500D01*
X110649775Y-56240209D01*
X110499145Y-56319267D01*
X110371820Y-56432067D01*
X110371817Y-56432071D01*
X110275181Y-56572071D01*
X110214141Y-56733024D01*
X110169058Y-56795605D01*
X110098725Y-56827259D01*
X110051520Y-56827355D01*
X110033489Y-56824500D01*
X110033488Y-56824500D01*
X108716512Y-56824500D01*
X108716511Y-56824500D01*
X108710681Y-56824959D01*
X108710486Y-56822489D01*
X108645011Y-56815562D01*
X108582645Y-56770184D01*
X108551322Y-56699702D01*
X108551363Y-56664423D01*
X108550041Y-56664319D01*
X108550500Y-56658489D01*
X108550500Y-55341516D01*
X108550500Y-55341512D01*
X108534719Y-55241874D01*
X108473528Y-55121780D01*
X108378220Y-55026472D01*
X108332354Y-55003102D01*
X108258127Y-54965281D01*
X108241519Y-54962650D01*
X108158488Y-54949500D01*
X107841512Y-54949500D01*
X107779238Y-54959363D01*
X107741871Y-54965281D01*
X107741870Y-54965282D01*
X107667644Y-55003102D01*
X107592201Y-55019138D01*
X107532356Y-55003102D01*
X107458129Y-54965282D01*
X107458128Y-54965281D01*
X107429658Y-54960772D01*
X107358488Y-54949500D01*
X107041512Y-54949500D01*
X106979238Y-54959363D01*
X106941871Y-54965281D01*
X106941870Y-54965282D01*
X106867644Y-55003102D01*
X106792201Y-55019138D01*
X106732356Y-55003102D01*
X106658129Y-54965282D01*
X106658128Y-54965281D01*
X106629658Y-54960772D01*
X106558488Y-54949500D01*
X106241512Y-54949500D01*
X106179238Y-54959363D01*
X106141871Y-54965281D01*
X106141870Y-54965282D01*
X106067644Y-55003102D01*
X105992201Y-55019138D01*
X105932356Y-55003102D01*
X105858129Y-54965282D01*
X105858128Y-54965281D01*
X105829658Y-54960772D01*
X105758488Y-54949500D01*
X105441512Y-54949500D01*
X105379238Y-54959363D01*
X105341871Y-54965281D01*
X105341870Y-54965282D01*
X105267644Y-55003102D01*
X105192201Y-55019138D01*
X105132356Y-55003102D01*
X105058129Y-54965282D01*
X105058128Y-54965281D01*
X105029658Y-54960772D01*
X104958488Y-54949500D01*
X104641512Y-54949500D01*
X104579238Y-54959363D01*
X104541871Y-54965281D01*
X104541870Y-54965282D01*
X104467644Y-55003102D01*
X104392201Y-55019138D01*
X104332356Y-55003102D01*
X104258129Y-54965282D01*
X104258128Y-54965281D01*
X104229658Y-54960772D01*
X104158488Y-54949500D01*
X103841512Y-54949500D01*
X103822805Y-54952462D01*
X103746102Y-54944400D01*
X103683704Y-54899065D01*
X103652334Y-54828605D01*
X103650500Y-54805297D01*
X103650500Y-53961915D01*
X103670462Y-53887415D01*
X103715573Y-53842303D01*
X103714221Y-53840519D01*
X103722343Y-53834360D01*
X103842922Y-53742922D01*
X103934361Y-53622342D01*
X103989877Y-53481564D01*
X104000500Y-53393102D01*
X104000500Y-52606898D01*
X103989877Y-52518436D01*
X103934361Y-52377658D01*
X103842922Y-52257078D01*
X103821116Y-52240542D01*
X103773817Y-52179623D01*
X103763314Y-52103214D01*
X103792423Y-52031789D01*
X103832928Y-51995002D01*
X103918337Y-51942322D01*
X104042319Y-51818340D01*
X104134357Y-51669121D01*
X104189505Y-51502697D01*
X104189507Y-51502688D01*
X104199999Y-51399989D01*
X104200000Y-51399979D01*
X104200000Y-51250000D01*
X101800001Y-51250000D01*
X101800001Y-51399973D01*
X101810494Y-51502696D01*
X101865642Y-51669121D01*
X101957680Y-51818340D01*
X102081659Y-51942319D01*
X102167072Y-51995002D01*
X102220001Y-52051103D01*
X102237788Y-52126152D01*
X102215668Y-52200040D01*
X102178883Y-52240542D01*
X102170744Y-52246714D01*
X102157076Y-52257079D01*
X102065639Y-52377658D01*
X102065638Y-52377658D01*
X102010122Y-52518436D01*
X101999500Y-52606894D01*
X101999500Y-53393105D01*
X102010122Y-53481563D01*
X102065638Y-53622341D01*
X102147915Y-53730840D01*
X102157078Y-53742922D01*
X102277658Y-53834361D01*
X102418436Y-53889877D01*
X102506898Y-53900500D01*
X102600500Y-53900500D01*
X102675000Y-53920462D01*
X102729538Y-53975000D01*
X102749500Y-54049500D01*
X102749500Y-54611315D01*
X102729538Y-54685815D01*
X102689963Y-54730468D01*
X102650000Y-54760473D01*
X102650000Y-55329307D01*
X102649540Y-55341001D01*
X102649500Y-55341509D01*
X102649500Y-56101000D01*
X102629538Y-56175500D01*
X102575000Y-56230038D01*
X102500500Y-56250000D01*
X101650000Y-56250000D01*
X101650000Y-56675500D01*
X101630038Y-56750000D01*
X101575500Y-56804538D01*
X101501000Y-56824500D01*
X101314743Y-56824500D01*
X101240243Y-56804538D01*
X101209384Y-56780859D01*
X100594141Y-56165616D01*
X100555577Y-56098821D01*
X100550500Y-56060257D01*
X100550500Y-56000894D01*
X100570462Y-55926394D01*
X100625000Y-55871856D01*
X100644825Y-55862288D01*
X100747342Y-55821861D01*
X100842105Y-55750000D01*
X101650000Y-55750000D01*
X102150000Y-55750000D01*
X102150000Y-54760473D01*
X102149999Y-54760472D01*
X102024816Y-54796842D01*
X102024806Y-54796847D01*
X101888893Y-54877224D01*
X101888887Y-54877229D01*
X101777229Y-54988887D01*
X101777227Y-54988890D01*
X101696846Y-55124807D01*
X101652789Y-55276448D01*
X101650000Y-55311895D01*
X101650000Y-55750000D01*
X100842105Y-55750000D01*
X100867922Y-55730422D01*
X100959361Y-55609842D01*
X101014877Y-55469064D01*
X101025500Y-55380602D01*
X101025500Y-54619398D01*
X101014877Y-54530936D01*
X100959361Y-54390158D01*
X100867922Y-54269578D01*
X100867920Y-54269576D01*
X100773208Y-54197754D01*
X100725908Y-54136833D01*
X100715405Y-54060423D01*
X100744515Y-53988999D01*
X100788186Y-53953763D01*
X100786736Y-53951413D01*
X100943340Y-53854819D01*
X101067319Y-53730840D01*
X101159357Y-53581621D01*
X101214505Y-53415197D01*
X101214507Y-53415188D01*
X101224999Y-53312489D01*
X101225000Y-53312479D01*
X101225000Y-53175000D01*
X99899000Y-53175000D01*
X99824500Y-53155038D01*
X99769962Y-53100500D01*
X99750000Y-53026000D01*
X99750000Y-51837500D01*
X100250000Y-51837500D01*
X100250000Y-52675000D01*
X101224999Y-52675000D01*
X101224999Y-52537526D01*
X101214505Y-52434803D01*
X101159357Y-52268378D01*
X101067319Y-52119159D01*
X100943340Y-51995180D01*
X100794121Y-51903142D01*
X100627697Y-51847994D01*
X100627688Y-51847992D01*
X100524989Y-51837500D01*
X100250000Y-51837500D01*
X99750000Y-51837500D01*
X99475026Y-51837500D01*
X99372303Y-51847994D01*
X99205878Y-51903142D01*
X99056659Y-51995180D01*
X98932680Y-52119159D01*
X98840642Y-52268378D01*
X98785494Y-52434802D01*
X98785492Y-52434811D01*
X98775000Y-52537510D01*
X98775000Y-52636757D01*
X98755038Y-52711257D01*
X98700500Y-52765795D01*
X98626000Y-52785757D01*
X98551500Y-52765795D01*
X98520641Y-52742116D01*
X96528525Y-50750000D01*
X101800000Y-50750000D01*
X102750000Y-50750000D01*
X102750000Y-49900000D01*
X103250000Y-49900000D01*
X103250000Y-50750000D01*
X104199999Y-50750000D01*
X104199999Y-50600026D01*
X104189505Y-50497303D01*
X104134357Y-50330878D01*
X104042319Y-50181659D01*
X103918340Y-50057680D01*
X103769121Y-49965642D01*
X103602697Y-49910494D01*
X103602688Y-49910492D01*
X103499989Y-49900000D01*
X103250000Y-49900000D01*
X102750000Y-49900000D01*
X102500026Y-49900000D01*
X102397303Y-49910494D01*
X102230878Y-49965642D01*
X102081659Y-50057680D01*
X101957680Y-50181659D01*
X101865642Y-50330878D01*
X101810494Y-50497302D01*
X101810492Y-50497311D01*
X101800000Y-50600010D01*
X101800000Y-50750000D01*
X96528525Y-50750000D01*
X90639415Y-44860890D01*
X90600851Y-44794095D01*
X90600851Y-44716967D01*
X90626050Y-44665500D01*
X90633888Y-44655163D01*
X90710862Y-44553658D01*
X90765117Y-44416077D01*
X90775500Y-44329618D01*
X90775500Y-44064741D01*
X90795462Y-43990241D01*
X90819137Y-43959386D01*
X92380834Y-42397688D01*
X92384432Y-42394210D01*
X92431044Y-42350680D01*
X92451727Y-42316665D01*
X92460302Y-42304066D01*
X92484361Y-42272342D01*
X92490160Y-42257635D01*
X92501458Y-42234888D01*
X92509672Y-42221382D01*
X92520412Y-42183047D01*
X92525267Y-42168607D01*
X92539876Y-42131564D01*
X92541492Y-42115845D01*
X92546234Y-42090888D01*
X92550500Y-42075665D01*
X92550500Y-42035863D01*
X92551281Y-42020625D01*
X92555352Y-41981028D01*
X92552666Y-41965447D01*
X92550500Y-41940134D01*
X92550500Y-40988394D01*
X92570462Y-40913894D01*
X92625000Y-40859356D01*
X92644825Y-40849788D01*
X92747342Y-40809361D01*
X92867922Y-40717922D01*
X92959361Y-40597342D01*
X92980066Y-40544837D01*
X93025967Y-40482856D01*
X93096710Y-40452128D01*
X93118677Y-40450500D01*
X93242749Y-40450500D01*
X93291958Y-40458860D01*
X93402801Y-40497646D01*
X93433234Y-40500500D01*
X93433241Y-40500500D01*
X94566759Y-40500500D01*
X94566766Y-40500500D01*
X94597199Y-40497646D01*
X94725382Y-40452793D01*
X94834650Y-40372150D01*
X94915293Y-40262882D01*
X94960146Y-40134699D01*
X94963000Y-40104266D01*
X94963000Y-39695734D01*
X94960146Y-39665301D01*
X94915293Y-39537118D01*
X94910632Y-39530803D01*
X94834651Y-39427851D01*
X94834648Y-39427848D01*
X94725383Y-39347207D01*
X94639858Y-39317281D01*
X94597199Y-39302354D01*
X94597197Y-39302353D01*
X94597195Y-39302353D01*
X94566775Y-39299500D01*
X94566766Y-39299500D01*
X93433234Y-39299500D01*
X93433224Y-39299500D01*
X93402804Y-39302353D01*
X93402801Y-39302353D01*
X93402801Y-39302354D01*
X93291958Y-39341139D01*
X93242749Y-39349500D01*
X93012014Y-39349500D01*
X92937514Y-39329538D01*
X92893290Y-39290531D01*
X92867922Y-39257078D01*
X92867921Y-39257077D01*
X92867920Y-39257076D01*
X92773208Y-39185254D01*
X92725908Y-39124333D01*
X92715405Y-39047923D01*
X92744515Y-38976499D01*
X92788186Y-38941263D01*
X92786736Y-38938913D01*
X92943340Y-38842319D01*
X93067319Y-38718340D01*
X93078632Y-38699999D01*
X95115203Y-38699999D01*
X95115204Y-38700000D01*
X96376000Y-38700000D01*
X96450500Y-38719962D01*
X96505038Y-38774500D01*
X96525000Y-38849000D01*
X96525000Y-39051000D01*
X96505038Y-39125500D01*
X96450500Y-39180038D01*
X96376000Y-39200000D01*
X95115204Y-39200000D01*
X95115399Y-39202488D01*
X95161218Y-39360196D01*
X95161218Y-39360197D01*
X95244816Y-39501554D01*
X95244818Y-39501557D01*
X95274064Y-39530803D01*
X95312628Y-39597598D01*
X95313996Y-39656111D01*
X95315700Y-39656271D01*
X95312000Y-39695724D01*
X95312000Y-40104275D01*
X95314853Y-40134695D01*
X95314853Y-40134697D01*
X95314854Y-40134699D01*
X95316530Y-40139488D01*
X95359707Y-40262883D01*
X95440348Y-40372148D01*
X95440351Y-40372151D01*
X95549616Y-40452792D01*
X95549617Y-40452792D01*
X95549618Y-40452793D01*
X95677801Y-40497646D01*
X95708234Y-40500500D01*
X95708241Y-40500500D01*
X96841759Y-40500500D01*
X96841766Y-40500500D01*
X96872199Y-40497646D01*
X96977473Y-40460808D01*
X97031772Y-40452534D01*
X97038432Y-40452762D01*
X97077096Y-40443338D01*
X97092079Y-40440490D01*
X97131526Y-40435070D01*
X97146024Y-40428771D01*
X97170107Y-40420673D01*
X97185458Y-40416933D01*
X97220149Y-40397427D01*
X97233810Y-40390640D01*
X97270326Y-40374780D01*
X97282583Y-40364806D01*
X97303581Y-40350515D01*
X97317365Y-40342766D01*
X97345510Y-40314619D01*
X97356840Y-40304395D01*
X97372864Y-40291358D01*
X97387714Y-40279278D01*
X97396827Y-40266365D01*
X97413196Y-40246934D01*
X97453849Y-40206281D01*
X97520642Y-40139486D01*
X97587435Y-40100923D01*
X97664563Y-40100923D01*
X97731358Y-40139487D01*
X97769923Y-40206281D01*
X97775000Y-40244845D01*
X97775000Y-40374973D01*
X97785494Y-40477696D01*
X97840642Y-40644121D01*
X97932680Y-40793340D01*
X98056659Y-40917319D01*
X98205878Y-41009357D01*
X98372302Y-41064505D01*
X98372311Y-41064507D01*
X98475015Y-41074999D01*
X98750000Y-41074999D01*
X98750000Y-40237500D01*
X99250000Y-40237500D01*
X99250000Y-41074999D01*
X99524974Y-41074999D01*
X99627696Y-41064505D01*
X99794121Y-41009357D01*
X99943340Y-40917319D01*
X100067319Y-40793340D01*
X100159357Y-40644121D01*
X100214505Y-40477697D01*
X100214507Y-40477688D01*
X100224999Y-40374989D01*
X100225000Y-40374979D01*
X100225000Y-40237500D01*
X99250000Y-40237500D01*
X98750000Y-40237500D01*
X98750000Y-39886500D01*
X98769962Y-39812000D01*
X98824500Y-39757462D01*
X98899000Y-39737500D01*
X100224999Y-39737500D01*
X100224999Y-39600026D01*
X100214505Y-39497303D01*
X100159357Y-39330878D01*
X100095730Y-39227721D01*
X100073610Y-39153833D01*
X100091397Y-39078784D01*
X100144326Y-39022683D01*
X100218214Y-39000563D01*
X100222547Y-39000500D01*
X103172686Y-39000500D01*
X103247186Y-39020462D01*
X103301724Y-39075000D01*
X103321686Y-39149500D01*
X103307726Y-39212471D01*
X103226568Y-39386512D01*
X103165431Y-39614677D01*
X103153592Y-39749999D01*
X103153593Y-39750000D01*
X104066314Y-39750000D01*
X104040507Y-39790156D01*
X104000000Y-39928111D01*
X104000000Y-40071889D01*
X104040507Y-40209844D01*
X104066314Y-40250000D01*
X103153592Y-40250000D01*
X103165431Y-40385322D01*
X103226568Y-40613487D01*
X103326402Y-40827580D01*
X103461891Y-41021079D01*
X103628923Y-41188111D01*
X103822411Y-41323593D01*
X103822420Y-41323599D01*
X104036508Y-41423430D01*
X104036513Y-41423432D01*
X104250000Y-41480634D01*
X104250000Y-40435501D01*
X104357685Y-40484680D01*
X104464237Y-40500000D01*
X104535763Y-40500000D01*
X104642315Y-40484680D01*
X104750000Y-40435501D01*
X104750000Y-41480633D01*
X104963486Y-41423432D01*
X105177580Y-41323597D01*
X105371079Y-41188108D01*
X105538107Y-41021080D01*
X105620321Y-40903667D01*
X105679405Y-40854090D01*
X105755361Y-40840697D01*
X105827838Y-40867076D01*
X105877415Y-40926160D01*
X105880986Y-40934469D01*
X105902251Y-40988394D01*
X105915639Y-41022342D01*
X106007078Y-41142922D01*
X106127658Y-41234361D01*
X106268436Y-41289877D01*
X106356898Y-41300500D01*
X106356899Y-41300500D01*
X107643101Y-41300500D01*
X107643102Y-41300500D01*
X107731564Y-41289877D01*
X107872342Y-41234361D01*
X107992922Y-41142922D01*
X108084361Y-41022342D01*
X108139877Y-40881564D01*
X108150500Y-40793102D01*
X108150500Y-39206898D01*
X108139877Y-39118436D01*
X108084361Y-38977658D01*
X108017546Y-38889549D01*
X107992923Y-38857079D01*
X107992920Y-38857076D01*
X107941838Y-38818340D01*
X107872342Y-38765639D01*
X107872341Y-38765638D01*
X107731563Y-38710122D01*
X107643105Y-38699500D01*
X107643102Y-38699500D01*
X106539743Y-38699500D01*
X106465243Y-38679538D01*
X106434384Y-38655859D01*
X105847702Y-38069177D01*
X105844167Y-38065519D01*
X105800679Y-38018955D01*
X105800675Y-38018952D01*
X105766672Y-37998274D01*
X105754061Y-37989692D01*
X105722339Y-37965637D01*
X105707632Y-37959837D01*
X105684884Y-37948538D01*
X105671383Y-37940328D01*
X105671378Y-37940326D01*
X105633047Y-37929586D01*
X105618589Y-37924724D01*
X105581562Y-37910123D01*
X105581563Y-37910123D01*
X105565843Y-37908507D01*
X105540888Y-37903765D01*
X105525666Y-37899500D01*
X105525665Y-37899500D01*
X105485865Y-37899500D01*
X105470628Y-37898719D01*
X105457145Y-37897333D01*
X105431028Y-37894648D01*
X105431027Y-37894648D01*
X105431026Y-37894648D01*
X105419354Y-37896660D01*
X105415454Y-37897333D01*
X105390138Y-37899500D01*
X100174500Y-37899500D01*
X100100000Y-37879538D01*
X100045462Y-37825000D01*
X100025500Y-37750500D01*
X100025500Y-37531899D01*
X100025500Y-37531898D01*
X100014877Y-37443436D01*
X99959361Y-37302658D01*
X99889927Y-37211096D01*
X99867923Y-37182079D01*
X99867920Y-37182076D01*
X99768467Y-37106659D01*
X99747342Y-37090639D01*
X99747341Y-37090638D01*
X99606563Y-37035122D01*
X99518105Y-37024500D01*
X99518102Y-37024500D01*
X98481898Y-37024500D01*
X98481894Y-37024500D01*
X98393436Y-37035122D01*
X98252658Y-37090638D01*
X98252658Y-37090639D01*
X98132079Y-37182076D01*
X98132076Y-37182079D01*
X98040639Y-37302658D01*
X98040638Y-37302658D01*
X97985122Y-37443436D01*
X97974500Y-37531894D01*
X97974500Y-37750500D01*
X97954538Y-37825000D01*
X97900000Y-37879538D01*
X97825500Y-37899500D01*
X97721348Y-37899500D01*
X97646848Y-37879538D01*
X97615989Y-37855859D01*
X97510630Y-37750500D01*
X97379309Y-37619178D01*
X97375774Y-37615520D01*
X97332285Y-37568955D01*
X97332281Y-37568952D01*
X97298278Y-37548274D01*
X97285667Y-37539692D01*
X97270048Y-37527848D01*
X97253948Y-37515639D01*
X97253947Y-37515638D01*
X97253945Y-37515637D01*
X97239238Y-37509837D01*
X97216490Y-37498538D01*
X97202989Y-37490328D01*
X97202984Y-37490326D01*
X97164653Y-37479586D01*
X97150195Y-37474724D01*
X97113168Y-37460123D01*
X97113169Y-37460123D01*
X97097449Y-37458507D01*
X97072494Y-37453765D01*
X97057272Y-37449500D01*
X97057271Y-37449500D01*
X97032251Y-37449500D01*
X96983041Y-37441139D01*
X96872199Y-37402354D01*
X96872197Y-37402353D01*
X96872195Y-37402353D01*
X96841775Y-37399500D01*
X96841766Y-37399500D01*
X95708234Y-37399500D01*
X95708224Y-37399500D01*
X95677804Y-37402353D01*
X95549616Y-37447207D01*
X95440351Y-37527848D01*
X95440348Y-37527851D01*
X95359707Y-37637116D01*
X95314853Y-37765304D01*
X95312000Y-37795724D01*
X95312000Y-38204275D01*
X95315700Y-38243729D01*
X95313717Y-38243914D01*
X95310668Y-38309085D01*
X95274065Y-38369194D01*
X95244822Y-38398437D01*
X95244816Y-38398445D01*
X95161218Y-38539802D01*
X95161218Y-38539803D01*
X95115399Y-38697511D01*
X95115203Y-38699999D01*
X93078632Y-38699999D01*
X93125189Y-38624518D01*
X93181290Y-38571590D01*
X93256338Y-38553802D01*
X93301213Y-38562099D01*
X93402801Y-38597646D01*
X93402802Y-38597646D01*
X93402805Y-38597647D01*
X93430470Y-38600240D01*
X93433234Y-38600500D01*
X93433241Y-38600500D01*
X94566759Y-38600500D01*
X94566766Y-38600500D01*
X94597199Y-38597646D01*
X94725382Y-38552793D01*
X94834650Y-38472150D01*
X94915293Y-38362882D01*
X94960146Y-38234699D01*
X94963000Y-38204266D01*
X94963000Y-37795734D01*
X94960146Y-37765301D01*
X94915293Y-37637118D01*
X94900727Y-37617382D01*
X94834651Y-37527851D01*
X94834648Y-37527848D01*
X94725383Y-37447207D01*
X94628858Y-37413432D01*
X94597199Y-37402354D01*
X94597197Y-37402353D01*
X94597195Y-37402353D01*
X94566775Y-37399500D01*
X94566766Y-37399500D01*
X93433234Y-37399500D01*
X93433224Y-37399500D01*
X93402804Y-37402353D01*
X93402800Y-37402353D01*
X93371140Y-37413432D01*
X93294227Y-37419195D01*
X93224738Y-37385730D01*
X93181291Y-37322003D01*
X93180493Y-37319660D01*
X93159358Y-37255880D01*
X93159358Y-37255879D01*
X93067319Y-37106659D01*
X92943340Y-36982680D01*
X92794121Y-36890642D01*
X92627697Y-36835494D01*
X92627688Y-36835492D01*
X92524989Y-36825000D01*
X92250000Y-36825000D01*
X92250000Y-38013500D01*
X92230038Y-38088000D01*
X92175500Y-38142538D01*
X92101000Y-38162500D01*
X91243000Y-38162500D01*
X91199359Y-38206141D01*
X91195878Y-38202660D01*
X91168500Y-38230038D01*
X91094000Y-38250000D01*
X88800001Y-38250000D01*
X88800001Y-38399973D01*
X88810494Y-38502696D01*
X88865642Y-38669121D01*
X88957680Y-38818340D01*
X89081659Y-38942319D01*
X89167072Y-38995002D01*
X89220001Y-39051103D01*
X89237788Y-39126152D01*
X89215668Y-39200040D01*
X89178883Y-39240542D01*
X89170744Y-39246714D01*
X89157076Y-39257079D01*
X89065639Y-39377658D01*
X89065638Y-39377658D01*
X89010122Y-39518436D01*
X88999500Y-39606894D01*
X88999500Y-40393105D01*
X89010122Y-40481563D01*
X89065638Y-40622341D01*
X89146240Y-40728631D01*
X89157078Y-40742922D01*
X89277658Y-40834361D01*
X89418436Y-40889877D01*
X89427698Y-40892218D01*
X89427371Y-40893508D01*
X89489848Y-40918554D01*
X89537497Y-40979203D01*
X89549500Y-41037793D01*
X89549500Y-41374820D01*
X89529538Y-41449320D01*
X89490531Y-41493544D01*
X89378501Y-41578498D01*
X89378498Y-41578501D01*
X89289137Y-41696342D01*
X89289137Y-41696343D01*
X89260223Y-41769665D01*
X89242103Y-41815616D01*
X89234883Y-41833924D01*
X89234882Y-41833926D01*
X89224500Y-41920381D01*
X89224500Y-42579618D01*
X89234882Y-42666073D01*
X89234882Y-42666074D01*
X89234883Y-42666077D01*
X89277673Y-42774585D01*
X89289137Y-42803656D01*
X89289137Y-42803657D01*
X89378498Y-42921498D01*
X89378501Y-42921501D01*
X89490294Y-43006276D01*
X89537594Y-43067197D01*
X89548097Y-43143607D01*
X89518987Y-43215031D01*
X89490294Y-43243724D01*
X89378501Y-43328498D01*
X89378498Y-43328501D01*
X89289137Y-43446342D01*
X89289137Y-43446343D01*
X89234883Y-43583924D01*
X89234882Y-43583926D01*
X89224500Y-43670381D01*
X89224500Y-44329618D01*
X89234882Y-44416073D01*
X89234882Y-44416074D01*
X89234883Y-44416077D01*
X89277673Y-44524585D01*
X89289137Y-44553656D01*
X89289137Y-44553657D01*
X89289138Y-44553658D01*
X89378500Y-44671500D01*
X89390531Y-44680623D01*
X89437830Y-44741539D01*
X89449500Y-44799346D01*
X89449500Y-44988062D01*
X89449413Y-44993149D01*
X89447237Y-45056826D01*
X89456662Y-45095499D01*
X89459510Y-45110486D01*
X89464930Y-45149919D01*
X89471226Y-45164414D01*
X89479324Y-45188495D01*
X89483065Y-45203846D01*
X89483067Y-45203852D01*
X89502573Y-45238544D01*
X89509356Y-45252202D01*
X89525217Y-45288714D01*
X89525221Y-45288721D01*
X89535191Y-45300976D01*
X89549484Y-45321977D01*
X89557233Y-45335758D01*
X89585382Y-45363907D01*
X89595604Y-45375234D01*
X89620721Y-45406107D01*
X89633631Y-45415220D01*
X89653065Y-45431590D01*
X98930859Y-54709384D01*
X98969423Y-54776179D01*
X98974500Y-54814743D01*
X98974500Y-55380605D01*
X98985122Y-55469063D01*
X99040638Y-55609841D01*
X99040639Y-55609842D01*
X99132078Y-55730422D01*
X99252658Y-55821861D01*
X99355164Y-55862284D01*
X99417144Y-55908183D01*
X99447872Y-55978926D01*
X99449500Y-56000894D01*
X99449500Y-56338062D01*
X99449413Y-56343149D01*
X99447237Y-56406826D01*
X99456662Y-56445499D01*
X99459510Y-56460486D01*
X99464930Y-56499919D01*
X99471226Y-56514414D01*
X99479324Y-56538495D01*
X99483065Y-56553846D01*
X99483067Y-56553852D01*
X99502573Y-56588544D01*
X99509357Y-56602202D01*
X99515409Y-56616134D01*
X99526782Y-56692419D01*
X99498490Y-56764171D01*
X99438112Y-56812163D01*
X99378746Y-56824500D01*
X95936966Y-56824500D01*
X95931880Y-56824413D01*
X95929770Y-56824340D01*
X95868172Y-56822236D01*
X95829495Y-56831662D01*
X95814511Y-56834509D01*
X95775080Y-56839930D01*
X95775079Y-56839930D01*
X95766888Y-56843487D01*
X95760579Y-56846228D01*
X95736508Y-56854322D01*
X95721155Y-56858063D01*
X95721147Y-56858066D01*
X95686449Y-56877575D01*
X95672795Y-56884357D01*
X95636284Y-56900217D01*
X95636279Y-56900220D01*
X95624017Y-56910196D01*
X95603018Y-56924487D01*
X95589243Y-56932232D01*
X95561096Y-56960378D01*
X95549776Y-56970594D01*
X95518892Y-56995721D01*
X95518890Y-56995723D01*
X95509774Y-57008637D01*
X95493410Y-57028063D01*
X94619175Y-57902298D01*
X94615519Y-57905831D01*
X94568957Y-57949318D01*
X94548277Y-57983324D01*
X94539697Y-57995930D01*
X94515639Y-58027656D01*
X94515638Y-58027657D01*
X94509837Y-58042368D01*
X94498543Y-58065108D01*
X94490326Y-58078621D01*
X94490325Y-58078623D01*
X94479586Y-58116949D01*
X94474726Y-58131401D01*
X94460125Y-58168428D01*
X94460123Y-58168437D01*
X94458506Y-58184163D01*
X94453766Y-58209105D01*
X94449500Y-58224334D01*
X94449500Y-58264135D01*
X94448719Y-58279372D01*
X94444648Y-58318972D01*
X94445242Y-58322420D01*
X94447333Y-58334544D01*
X94449500Y-58359862D01*
X94449500Y-59697076D01*
X94429538Y-59771576D01*
X94375000Y-59826114D01*
X94300500Y-59846076D01*
X94226000Y-59826114D01*
X94201695Y-59808604D01*
X94100854Y-59719267D01*
X93950224Y-59640209D01*
X93785056Y-59599500D01*
X93614944Y-59599500D01*
X93449775Y-59640209D01*
X93299145Y-59719267D01*
X93171820Y-59832067D01*
X93171817Y-59832071D01*
X93075181Y-59972070D01*
X93014860Y-60131125D01*
X92994355Y-60300000D01*
X93014860Y-60468874D01*
X93075181Y-60627929D01*
X93075182Y-60627930D01*
X93123124Y-60697386D01*
X93149017Y-60770036D01*
X93149500Y-60782027D01*
X93149500Y-61688062D01*
X93149413Y-61693149D01*
X93147237Y-61756826D01*
X93156662Y-61795499D01*
X93159510Y-61810486D01*
X93164930Y-61849919D01*
X93171226Y-61864414D01*
X93179324Y-61888495D01*
X93183065Y-61903846D01*
X93183067Y-61903852D01*
X93190386Y-61916870D01*
X93202573Y-61938544D01*
X93209356Y-61952200D01*
X93220162Y-61977075D01*
X93232500Y-62036443D01*
X93232500Y-63043500D01*
X93212538Y-63118000D01*
X93158000Y-63172538D01*
X93083500Y-63192500D01*
X89757501Y-63192500D01*
X89757501Y-63329973D01*
X89767994Y-63432696D01*
X89823142Y-63599121D01*
X89915180Y-63748340D01*
X90039159Y-63872319D01*
X90195764Y-63968913D01*
X90194161Y-63971511D01*
X90241287Y-64011029D01*
X90267689Y-64083498D01*
X90254319Y-64159458D01*
X90209292Y-64215253D01*
X90208784Y-64215639D01*
X90114576Y-64287079D01*
X90023139Y-64407658D01*
X90023138Y-64407658D01*
X89967622Y-64548436D01*
X89957000Y-64636894D01*
X89957000Y-65398105D01*
X89967622Y-65486563D01*
X89993882Y-65553153D01*
X90023139Y-65627342D01*
X90023142Y-65627346D01*
X90023213Y-65627472D01*
X90023254Y-65627635D01*
X90026878Y-65636823D01*
X90025721Y-65637279D01*
X90042326Y-65702194D01*
X90021518Y-65776463D01*
X89966364Y-65830377D01*
X89893336Y-65849500D01*
X88548321Y-65849500D01*
X88473821Y-65829538D01*
X88442962Y-65805859D01*
X85329603Y-62692500D01*
X89757500Y-62692500D01*
X90732500Y-62692500D01*
X90732500Y-61855000D01*
X91232500Y-61855000D01*
X91232500Y-62692500D01*
X92732500Y-62692500D01*
X92732500Y-61855000D01*
X92457526Y-61855000D01*
X92354803Y-61865494D01*
X92188377Y-61920642D01*
X92188374Y-61920643D01*
X92060720Y-61999381D01*
X91986832Y-62021501D01*
X91911783Y-62003713D01*
X91904280Y-61999381D01*
X91776625Y-61920643D01*
X91776622Y-61920642D01*
X91610197Y-61865494D01*
X91610188Y-61865492D01*
X91507489Y-61855000D01*
X91232500Y-61855000D01*
X90732500Y-61855000D01*
X90457526Y-61855000D01*
X90354803Y-61865494D01*
X90188378Y-61920642D01*
X90039159Y-62012680D01*
X89915180Y-62136659D01*
X89823142Y-62285878D01*
X89767994Y-62452302D01*
X89767992Y-62452311D01*
X89757500Y-62555010D01*
X89757500Y-62692500D01*
X85329603Y-62692500D01*
X81344141Y-58707038D01*
X81305577Y-58640243D01*
X81300500Y-58601679D01*
X81300500Y-57356899D01*
X81300500Y-57356898D01*
X81289877Y-57268436D01*
X81234361Y-57127658D01*
X81189782Y-57068872D01*
X81142923Y-57007079D01*
X81142920Y-57007076D01*
X81094811Y-56970594D01*
X81022342Y-56915639D01*
X81022341Y-56915638D01*
X80881563Y-56860122D01*
X80793105Y-56849500D01*
X80793102Y-56849500D01*
X79206898Y-56849500D01*
X79206894Y-56849500D01*
X79118436Y-56860122D01*
X78977658Y-56915638D01*
X78977658Y-56915639D01*
X78857079Y-57007076D01*
X78857076Y-57007079D01*
X78765639Y-57127658D01*
X78765638Y-57127658D01*
X78710122Y-57268436D01*
X78699500Y-57356894D01*
X78699500Y-58643105D01*
X78710122Y-58731563D01*
X78765638Y-58872341D01*
X78836388Y-58965639D01*
X78857078Y-58992922D01*
X78977658Y-59084361D01*
X79065534Y-59119015D01*
X79127512Y-59164913D01*
X79158241Y-59235656D01*
X79149481Y-59312285D01*
X79103580Y-59374267D01*
X79096333Y-59379677D01*
X78978921Y-59461890D01*
X78811888Y-59628923D01*
X78676406Y-59822411D01*
X78676400Y-59822420D01*
X78576569Y-60036508D01*
X78576568Y-60036510D01*
X78519364Y-60249999D01*
X78519364Y-60250000D01*
X79566314Y-60250000D01*
X79540507Y-60290156D01*
X79500000Y-60428111D01*
X79500000Y-60571889D01*
X79540507Y-60709844D01*
X79566314Y-60750000D01*
X78519364Y-60750000D01*
X76500500Y-60750000D01*
X76500500Y-41902426D01*
X76520462Y-41827926D01*
X76575000Y-41773388D01*
X76649500Y-41753426D01*
X76724000Y-41773388D01*
X76778538Y-41827926D01*
X76782261Y-41834783D01*
X76791304Y-41852533D01*
X76791311Y-41852545D01*
X77002528Y-42177789D01*
X77211096Y-42435349D01*
X78702266Y-40944179D01*
X78865130Y-41134870D01*
X79055819Y-41297733D01*
X77564649Y-42788903D01*
X77822213Y-42997473D01*
X77822215Y-42997475D01*
X78147454Y-43208688D01*
X78147474Y-43208699D01*
X78492998Y-43384751D01*
X78493022Y-43384762D01*
X78855052Y-43523733D01*
X78855072Y-43523740D01*
X79229661Y-43624110D01*
X79229664Y-43624111D01*
X79612719Y-43684781D01*
X80000000Y-43705077D01*
X80387280Y-43684781D01*
X80770335Y-43624111D01*
X80770338Y-43624110D01*
X81144927Y-43523740D01*
X81144947Y-43523733D01*
X81506977Y-43384762D01*
X81507001Y-43384751D01*
X81852525Y-43208699D01*
X81852545Y-43208688D01*
X82177785Y-42997474D01*
X82435349Y-42788902D01*
X80944180Y-41297733D01*
X81134870Y-41134870D01*
X81297733Y-40944180D01*
X82788902Y-42435349D01*
X82997474Y-42177785D01*
X83208688Y-41852545D01*
X83208699Y-41852525D01*
X83384751Y-41507001D01*
X83384762Y-41506977D01*
X83523733Y-41144947D01*
X83523740Y-41144927D01*
X83624110Y-40770338D01*
X83624111Y-40770335D01*
X83684781Y-40387280D01*
X83705077Y-40000000D01*
X83684781Y-39612719D01*
X83624111Y-39229664D01*
X83624110Y-39229661D01*
X83523740Y-38855072D01*
X83523733Y-38855052D01*
X83384762Y-38493022D01*
X83384751Y-38492998D01*
X83208699Y-38147474D01*
X83208688Y-38147454D01*
X82997475Y-37822215D01*
X82997473Y-37822213D01*
X82938996Y-37750000D01*
X88800000Y-37750000D01*
X89750000Y-37750000D01*
X90250000Y-37750000D01*
X90732000Y-37750000D01*
X90775641Y-37706359D01*
X90779122Y-37709840D01*
X90806500Y-37682462D01*
X90881000Y-37662500D01*
X91750000Y-37662500D01*
X91750000Y-36825000D01*
X91475026Y-36825000D01*
X91372303Y-36835494D01*
X91205878Y-36890642D01*
X91056659Y-36982680D01*
X91056657Y-36982681D01*
X91040808Y-36998531D01*
X90974012Y-37037094D01*
X90896884Y-37037092D01*
X90857231Y-37019987D01*
X90769125Y-36965644D01*
X90769122Y-36965642D01*
X90602697Y-36910494D01*
X90602688Y-36910492D01*
X90499989Y-36900000D01*
X90250000Y-36900000D01*
X90250000Y-37750000D01*
X89750000Y-37750000D01*
X89750000Y-36900000D01*
X89500026Y-36900000D01*
X89397303Y-36910494D01*
X89230878Y-36965642D01*
X89081659Y-37057680D01*
X88957680Y-37181659D01*
X88865642Y-37330878D01*
X88810494Y-37497302D01*
X88810492Y-37497311D01*
X88800000Y-37600010D01*
X88800000Y-37750000D01*
X82938996Y-37750000D01*
X82788903Y-37564649D01*
X81297733Y-39055818D01*
X81134870Y-38865130D01*
X80944180Y-38702266D01*
X82435350Y-37211096D01*
X82177789Y-37002528D01*
X81852545Y-36791311D01*
X81852533Y-36791304D01*
X81834783Y-36782261D01*
X81777465Y-36730652D01*
X81753630Y-36657300D01*
X81769665Y-36581857D01*
X81821274Y-36524539D01*
X81894626Y-36500704D01*
X81902426Y-36500500D01*
X128097574Y-36500500D01*
X128172074Y-36520462D01*
G37*
%TD.AperFunction*%
%TD*%
M02*
